<?xml version="1.0" encoding="UTF-8" standalone="no"?>
<!-- Created with Inkscape (http://www.inkscape.org/) -->

<svg
   xmlns:dc="http://purl.org/dc/elements/1.1/"
   xmlns:cc="http://creativecommons.org/ns#"
   xmlns:rdf="http://www.w3.org/1999/02/22-rdf-syntax-ns#"
   xmlns:svg="http://www.w3.org/2000/svg"
   xmlns="http://www.w3.org/2000/svg"
   xmlns:sodipodi="http://sodipodi.sourceforge.net/DTD/sodipodi-0.dtd"
   xmlns:inkscape="http://www.inkscape.org/namespaces/inkscape"
   id="svg3627"
   version="1.1"
   inkscape:version="0.47 r22583"
   width="450"
   height="150"
   sodipodi:docname="banner_final.svg">
  <metadata
     id="metadata3633">
    <rdf:RDF>
      <cc:Work
         rdf:about="">
        <dc:format>image/svg+xml</dc:format>
        <dc:type
           rdf:resource="http://purl.org/dc/dcmitype/StillImage" />
        <dc:title />
      </cc:Work>
    </rdf:RDF>
  </metadata>
  <defs
     id="defs3631">
    <inkscape:perspective
       sodipodi:type="inkscape:persp3d"
       inkscape:vp_x="0 : 0.5 : 1"
       inkscape:vp_y="0 : 1000 : 0"
       inkscape:vp_z="1 : 0.5 : 1"
       inkscape:persp3d-origin="0.5 : 0.33333333 : 1"
       id="perspective3635" />
    <inkscape:perspective
       id="perspective4447"
       inkscape:persp3d-origin="0.5 : 0.33333333 : 1"
       inkscape:vp_z="1 : 0.5 : 1"
       inkscape:vp_y="0 : 1000 : 0"
       inkscape:vp_x="0 : 0.5 : 1"
       sodipodi:type="inkscape:persp3d" />
    <inkscape:perspective
       id="perspective4475"
       inkscape:persp3d-origin="0.5 : 0.33333333 : 1"
       inkscape:vp_z="1 : 0.5 : 1"
       inkscape:vp_y="0 : 1000 : 0"
       inkscape:vp_x="0 : 0.5 : 1"
       sodipodi:type="inkscape:persp3d" />
    <inkscape:perspective
       id="perspective4489"
       inkscape:persp3d-origin="0.5 : 0.33333333 : 1"
       inkscape:vp_z="1 : 0.5 : 1"
       inkscape:vp_y="0 : 1000 : 0"
       inkscape:vp_x="0 : 0.5 : 1"
       sodipodi:type="inkscape:persp3d" />
    <inkscape:perspective
       id="perspective4503"
       inkscape:persp3d-origin="0.5 : 0.33333333 : 1"
       inkscape:vp_z="1 : 0.5 : 1"
       inkscape:vp_y="0 : 1000 : 0"
       inkscape:vp_x="0 : 0.5 : 1"
       sodipodi:type="inkscape:persp3d" />
    <inkscape:perspective
       id="perspective4521"
       inkscape:persp3d-origin="0.5 : 0.33333333 : 1"
       inkscape:vp_z="1 : 0.5 : 1"
       inkscape:vp_y="0 : 1000 : 0"
       inkscape:vp_x="0 : 0.5 : 1"
       sodipodi:type="inkscape:persp3d" />
    <inkscape:perspective
       id="perspective4539"
       inkscape:persp3d-origin="0.5 : 0.33333333 : 1"
       inkscape:vp_z="1 : 0.5 : 1"
       inkscape:vp_y="0 : 1000 : 0"
       inkscape:vp_x="0 : 0.5 : 1"
       sodipodi:type="inkscape:persp3d" />
    <inkscape:perspective
       id="perspective4553"
       inkscape:persp3d-origin="0.5 : 0.33333333 : 1"
       inkscape:vp_z="1 : 0.5 : 1"
       inkscape:vp_y="0 : 1000 : 0"
       inkscape:vp_x="0 : 0.5 : 1"
       sodipodi:type="inkscape:persp3d" />
    <inkscape:perspective
       id="perspective4567"
       inkscape:persp3d-origin="0.5 : 0.33333333 : 1"
       inkscape:vp_z="1 : 0.5 : 1"
       inkscape:vp_y="0 : 1000 : 0"
       inkscape:vp_x="0 : 0.5 : 1"
       sodipodi:type="inkscape:persp3d" />
    <inkscape:perspective
       id="perspective4597"
       inkscape:persp3d-origin="0.5 : 0.33333333 : 1"
       inkscape:vp_z="1 : 0.5 : 1"
       inkscape:vp_y="0 : 1000 : 0"
       inkscape:vp_x="0 : 0.5 : 1"
       sodipodi:type="inkscape:persp3d" />
    <inkscape:perspective
       id="perspective4670"
       inkscape:persp3d-origin="0.5 : 0.33333333 : 1"
       inkscape:vp_z="1 : 0.5 : 1"
       inkscape:vp_y="0 : 1000 : 0"
       inkscape:vp_x="0 : 0.5 : 1"
       sodipodi:type="inkscape:persp3d" />
    <inkscape:perspective
       id="perspective4700"
       inkscape:persp3d-origin="0.5 : 0.33333333 : 1"
       inkscape:vp_z="1 : 0.5 : 1"
       inkscape:vp_y="0 : 1000 : 0"
       inkscape:vp_x="0 : 0.5 : 1"
       sodipodi:type="inkscape:persp3d" />
    <inkscape:perspective
       id="perspective4730"
       inkscape:persp3d-origin="0.5 : 0.33333333 : 1"
       inkscape:vp_z="1 : 0.5 : 1"
       inkscape:vp_y="0 : 1000 : 0"
       inkscape:vp_x="0 : 0.5 : 1"
       sodipodi:type="inkscape:persp3d" />
    <inkscape:perspective
       id="perspective4760"
       inkscape:persp3d-origin="0.5 : 0.33333333 : 1"
       inkscape:vp_z="1 : 0.5 : 1"
       inkscape:vp_y="0 : 1000 : 0"
       inkscape:vp_x="0 : 0.5 : 1"
       sodipodi:type="inkscape:persp3d" />
    <inkscape:perspective
       id="perspective2942"
       inkscape:persp3d-origin="0.5 : 0.33333333 : 1"
       inkscape:vp_z="1 : 0.5 : 1"
       inkscape:vp_y="0 : 1000 : 0"
       inkscape:vp_x="0 : 0.5 : 1"
       sodipodi:type="inkscape:persp3d" />
    <inkscape:perspective
       id="perspective3890"
       inkscape:persp3d-origin="0.5 : 0.33333333 : 1"
       inkscape:vp_z="1 : 0.5 : 1"
       inkscape:vp_y="0 : 1000 : 0"
       inkscape:vp_x="0 : 0.5 : 1"
       sodipodi:type="inkscape:persp3d" />
    <inkscape:perspective
       id="perspective3912"
       inkscape:persp3d-origin="0.5 : 0.33333333 : 1"
       inkscape:vp_z="1 : 0.5 : 1"
       inkscape:vp_y="0 : 1000 : 0"
       inkscape:vp_x="0 : 0.5 : 1"
       sodipodi:type="inkscape:persp3d" />
    <inkscape:perspective
       id="perspective3934"
       inkscape:persp3d-origin="0.5 : 0.33333333 : 1"
       inkscape:vp_z="1 : 0.5 : 1"
       inkscape:vp_y="0 : 1000 : 0"
       inkscape:vp_x="0 : 0.5 : 1"
       sodipodi:type="inkscape:persp3d" />
    <inkscape:perspective
       id="perspective3969"
       inkscape:persp3d-origin="0.5 : 0.33333333 : 1"
       inkscape:vp_z="1 : 0.5 : 1"
       inkscape:vp_y="0 : 1000 : 0"
       inkscape:vp_x="0 : 0.5 : 1"
       sodipodi:type="inkscape:persp3d" />
    <inkscape:perspective
       id="perspective3969-8"
       inkscape:persp3d-origin="0.5 : 0.33333333 : 1"
       inkscape:vp_z="1 : 0.5 : 1"
       inkscape:vp_y="0 : 1000 : 0"
       inkscape:vp_x="0 : 0.5 : 1"
       sodipodi:type="inkscape:persp3d" />
    <inkscape:perspective
       id="perspective4004"
       inkscape:persp3d-origin="0.5 : 0.33333333 : 1"
       inkscape:vp_z="1 : 0.5 : 1"
       inkscape:vp_y="0 : 1000 : 0"
       inkscape:vp_x="0 : 0.5 : 1"
       sodipodi:type="inkscape:persp3d" />
    <inkscape:perspective
       id="perspective4028"
       inkscape:persp3d-origin="0.5 : 0.33333333 : 1"
       inkscape:vp_z="1 : 0.5 : 1"
       inkscape:vp_y="0 : 1000 : 0"
       inkscape:vp_x="0 : 0.5 : 1"
       sodipodi:type="inkscape:persp3d" />
    <inkscape:perspective
       id="perspective4050"
       inkscape:persp3d-origin="0.5 : 0.33333333 : 1"
       inkscape:vp_z="1 : 0.5 : 1"
       inkscape:vp_y="0 : 1000 : 0"
       inkscape:vp_x="0 : 0.5 : 1"
       sodipodi:type="inkscape:persp3d" />
    <inkscape:perspective
       id="perspective4072"
       inkscape:persp3d-origin="0.5 : 0.33333333 : 1"
       inkscape:vp_z="1 : 0.5 : 1"
       inkscape:vp_y="0 : 1000 : 0"
       inkscape:vp_x="0 : 0.5 : 1"
       sodipodi:type="inkscape:persp3d" />
    <inkscape:perspective
       id="perspective4094"
       inkscape:persp3d-origin="0.5 : 0.33333333 : 1"
       inkscape:vp_z="1 : 0.5 : 1"
       inkscape:vp_y="0 : 1000 : 0"
       inkscape:vp_x="0 : 0.5 : 1"
       sodipodi:type="inkscape:persp3d" />
    <inkscape:perspective
       id="perspective4116"
       inkscape:persp3d-origin="0.5 : 0.33333333 : 1"
       inkscape:vp_z="1 : 0.5 : 1"
       inkscape:vp_y="0 : 1000 : 0"
       inkscape:vp_x="0 : 0.5 : 1"
       sodipodi:type="inkscape:persp3d" />
    <inkscape:perspective
       id="perspective4138"
       inkscape:persp3d-origin="0.5 : 0.33333333 : 1"
       inkscape:vp_z="1 : 0.5 : 1"
       inkscape:vp_y="0 : 1000 : 0"
       inkscape:vp_x="0 : 0.5 : 1"
       sodipodi:type="inkscape:persp3d" />
    <inkscape:perspective
       id="perspective4160"
       inkscape:persp3d-origin="0.5 : 0.33333333 : 1"
       inkscape:vp_z="1 : 0.5 : 1"
       inkscape:vp_y="0 : 1000 : 0"
       inkscape:vp_x="0 : 0.5 : 1"
       sodipodi:type="inkscape:persp3d" />
    <inkscape:perspective
       id="perspective4182"
       inkscape:persp3d-origin="0.5 : 0.33333333 : 1"
       inkscape:vp_z="1 : 0.5 : 1"
       inkscape:vp_y="0 : 1000 : 0"
       inkscape:vp_x="0 : 0.5 : 1"
       sodipodi:type="inkscape:persp3d" />
    <inkscape:perspective
       id="perspective4204"
       inkscape:persp3d-origin="0.5 : 0.33333333 : 1"
       inkscape:vp_z="1 : 0.5 : 1"
       inkscape:vp_y="0 : 1000 : 0"
       inkscape:vp_x="0 : 0.5 : 1"
       sodipodi:type="inkscape:persp3d" />
    <inkscape:perspective
       id="perspective4226"
       inkscape:persp3d-origin="0.5 : 0.33333333 : 1"
       inkscape:vp_z="1 : 0.5 : 1"
       inkscape:vp_y="0 : 1000 : 0"
       inkscape:vp_x="0 : 0.5 : 1"
       sodipodi:type="inkscape:persp3d" />
    <inkscape:perspective
       id="perspective4248"
       inkscape:persp3d-origin="0.5 : 0.33333333 : 1"
       inkscape:vp_z="1 : 0.5 : 1"
       inkscape:vp_y="0 : 1000 : 0"
       inkscape:vp_x="0 : 0.5 : 1"
       sodipodi:type="inkscape:persp3d" />
    <inkscape:perspective
       id="perspective3727"
       inkscape:persp3d-origin="0.5 : 0.33333333 : 1"
       inkscape:vp_z="1 : 0.5 : 1"
       inkscape:vp_y="0 : 1000 : 0"
       inkscape:vp_x="0 : 0.5 : 1"
       sodipodi:type="inkscape:persp3d" />
    <inkscape:perspective
       id="perspective3749"
       inkscape:persp3d-origin="0.5 : 0.33333333 : 1"
       inkscape:vp_z="1 : 0.5 : 1"
       inkscape:vp_y="0 : 1000 : 0"
       inkscape:vp_x="0 : 0.5 : 1"
       sodipodi:type="inkscape:persp3d" />
    <inkscape:perspective
       id="perspective3771"
       inkscape:persp3d-origin="0.5 : 0.33333333 : 1"
       inkscape:vp_z="1 : 0.5 : 1"
       inkscape:vp_y="0 : 1000 : 0"
       inkscape:vp_x="0 : 0.5 : 1"
       sodipodi:type="inkscape:persp3d" />
    <inkscape:perspective
       id="perspective3793"
       inkscape:persp3d-origin="0.5 : 0.33333333 : 1"
       inkscape:vp_z="1 : 0.5 : 1"
       inkscape:vp_y="0 : 1000 : 0"
       inkscape:vp_x="0 : 0.5 : 1"
       sodipodi:type="inkscape:persp3d" />
    <inkscape:perspective
       id="perspective3815"
       inkscape:persp3d-origin="0.5 : 0.33333333 : 1"
       inkscape:vp_z="1 : 0.5 : 1"
       inkscape:vp_y="0 : 1000 : 0"
       inkscape:vp_x="0 : 0.5 : 1"
       sodipodi:type="inkscape:persp3d" />
    <inkscape:perspective
       id="perspective3837"
       inkscape:persp3d-origin="0.5 : 0.33333333 : 1"
       inkscape:vp_z="1 : 0.5 : 1"
       inkscape:vp_y="0 : 1000 : 0"
       inkscape:vp_x="0 : 0.5 : 1"
       sodipodi:type="inkscape:persp3d" />
  </defs>
  <sodipodi:namedview
     pagecolor="#ffffff"
     bordercolor="#666666"
     borderopacity="1"
     objecttolerance="10"
     gridtolerance="10"
     guidetolerance="10"
     inkscape:pageopacity="0"
     inkscape:pageshadow="2"
     inkscape:window-width="1920"
     inkscape:window-height="1125"
     id="namedview3629"
     showgrid="false"
     inkscape:zoom="4.03"
     inkscape:cx="424.15418"
     inkscape:cy="57.963556"
     inkscape:window-x="0"
     inkscape:window-y="25"
     inkscape:window-maximized="1"
     inkscape:current-layer="svg3627" />
  <text
     xml:space="preserve"
     style="font-size:48px;font-style:italic;font-weight:bold;fill:#000000;fill-opacity:1;stroke:none;font-family:Sans;-inkscape-font-specification:Sans Bold Italic"
     x="0.81283379"
     y="126.73797"
     id="text3639"><tspan
       sodipodi:role="line"
       id="tspan3641"
       x="0.81283379"
       y="126.73797">RNA</tspan></text>
  <text
     xml:space="preserve"
     style="font-size:48px;font-style:normal;font-weight:normal;fill:#000000;fill-opacity:1;stroke:none;font-family:Bitstream Vera Sans"
     x="107.49732"
     y="126.33155"
     id="text3643"><tspan
       sodipodi:role="line"
       id="tspan3645"
       x="107.49732"
       y="126.33155">Predator</tspan></text>
  <text
     xml:space="preserve"
     style="font-size:21.95161629px;font-style:normal;font-weight:normal;fill:#000000;fill-opacity:1;stroke:none;font-family:Bitstream Vera Sans"
     x="-0.39590573"
     y="144.86786"
     id="text3647"
     transform="scale(0.9978007,1.0022042)"><tspan
       sodipodi:role="line"
       id="tspan3649"
       x="-0.39590573"
       y="144.86786"
       style="font-size:19.95601463px">A sRNA bacterial target prediction webserver</tspan></text>
  <text
     xml:space="preserve"
     style="font-size:14px;font-style:normal;font-weight:normal;fill:#000000;fill-opacity:1;stroke:none;font-family:Utopia;-inkscape-font-specification:Utopia"
     x="349.7326"
     y="70.588234"
     id="text3659"><tspan
       sodipodi:role="line"
       id="tspan3661"
       x="349.7326"
       y="70.588234" /></text>
  <path
     sodipodi:type="arc"
     style="fill:#a40000;fill-opacity:1;stroke:#000000;stroke-opacity:1;stroke-width:0.11161427;stroke-miterlimit:4;stroke-dasharray:none"
     id="path5187-3"
     sodipodi:cx="430.1636"
     sodipodi:cy="10.420764"
     sodipodi:rx="2.9914019"
     sodipodi:ry="5.3064871"
     d="m 433.15501,10.420764 a 2.9914019,5.3064871 0 1 1 -5.98281,0 2.9914019,5.3064871 0 1 1 5.98281,0 z"
     transform="matrix(4.3439414,-1.3315574,1.5677691,4.1391587,-1505.8262,568.66094)" />
  <text
     xml:space="preserve"
     style="font-size:9px;font-style:normal;font-weight:normal;fill:#000000;fill-opacity:1;stroke:none;font-family:Bitstream Vera Sans"
     x="371.08203"
     y="108.34525"
     id="text3006"><tspan
       sodipodi:role="line"
       id="tspan3008"
       x="371.08203"
       y="108.34525">A</tspan></text>
  <path
     sodipodi:type="arc"
     style="opacity:0.97000001999999996;fill:#ffff00;fill-opacity:1;stroke:#000000;stroke-opacity:1;stroke-width:0.08422506;stroke-miterlimit:4;stroke-dasharray:none"
     id="path5218-6"
     sodipodi:cx="430.44974"
     sodipodi:cy="26.496298"
     sodipodi:rx="0.26012191"
     sodipodi:ry="0.57226819"
     d="m 430.70986,26.496298 a 0.26012191,0.57226819 0 1 1 -0.52024,0 0.26012191,0.57226819 0 1 1 0.52024,0 z"
     transform="matrix(4.4394677,4.0552537,-2.9675661,5.2275421,-1463.737,-1779.0572)" />
  <path
     sodipodi:type="arc"
     style="opacity:0.97000001999999996;fill:#ffff00;fill-opacity:1;stroke:#000000;stroke-opacity:1;stroke-width:0.08422507;stroke-miterlimit:4;stroke-dasharray:none"
     id="path5218-26-9"
     sodipodi:cx="430.44974"
     sodipodi:cy="26.496298"
     sodipodi:rx="0.26012191"
     sodipodi:ry="0.57226819"
     d="m 430.70986,26.496298 a 0.26012191,0.57226819 0 1 1 -0.52024,0 0.26012191,0.57226819 0 1 1 0.52024,0 z"
     transform="matrix(5.3348979,0.17819589,0.23276561,6.6136614,-1930.9294,-145.29561)" />
  <path
     sodipodi:type="arc"
     style="opacity:0.97000001999999996;fill:#ffff00;fill-opacity:1;stroke:#000000;stroke-opacity:1;stroke-width:0.08422507;stroke-miterlimit:4;stroke-dasharray:none"
     id="path5218-2-2"
     sodipodi:cx="430.44974"
     sodipodi:cy="26.496298"
     sodipodi:rx="0.26012191"
     sodipodi:ry="0.57226819"
     d="m 430.70986,26.496298 a 0.26012191,0.57226819 0 1 1 -0.52024,0 0.26012191,0.57226819 0 1 1 0.52024,0 z"
     transform="matrix(4.8631342,-2.3013635,2.2057301,6.2029023,-1777.9423,930.48289)"
     inkscape:transform-center-x="-2.108357"
     inkscape:transform-center-y="0.79543207" />
  <path
     sodipodi:type="arc"
     style="opacity:0.97000001999999996;fill:#ffff00;fill-opacity:1;stroke:#000000;stroke-opacity:1;stroke-width:0.0852046;stroke-miterlimit:4;stroke-dasharray:none"
     id="path5216-8"
     sodipodi:cx="430.42374"
     sodipodi:cy="25.351761"
     sodipodi:rx="0.54625601"
     sodipodi:ry="0.98846328"
     d="m 430.96999,25.351761 a 0.54625601,0.98846328 0 1 1 -1.09251,0 0.54625601,0.98846328 0 1 1 1.09251,0 z"
     transform="matrix(5.3283298,0.24273674,0.23866905,6.4737038,-1928.7919,-169.19803)" />
  <path
     sodipodi:type="arc"
     style="fill:#a40000;fill-opacity:1;stroke:#000000;stroke-opacity:1;stroke-width:0.08212693;stroke-miterlimit:4;stroke-dasharray:none"
     id="path5163-6"
     sodipodi:cx="428.88901"
     sodipodi:cy="22.464409"
     sodipodi:rx="0.98846328"
     sodipodi:ry="2.1069875"
     d="m 429.87747,22.464409 a 0.98846328,2.1069875 0 1 1 -1.97693,0 0.98846328,2.1069875 0 1 1 1.97693,0 z"
     transform="matrix(6.3757426,-0.2619504,0.66848823,5.7860399,-2379.83,66.851743)" />
  <path
     sodipodi:type="arc"
     style="fill:#630000;fill-opacity:1;stroke:#000000;stroke-opacity:1;stroke-width:0.2175559;stroke-miterlimit:4;stroke-dasharray:none"
     id="path5084"
     sodipodi:cx="422.55341"
     sodipodi:cy="24.405756"
     sodipodi:rx="11.917363"
     sodipodi:ry="8.7604456"
     d="m 434.47077,24.405756 a 11.917363,8.7604456 0 1 1 -23.83473,0 11.917363,8.7604456 0 1 1 23.83473,0 z"
     transform="matrix(2.6918061,1.1886422,-1.0107423,2.3793196,-739.91579,-498.82925)" />
  <path
     sodipodi:type="arc"
     style="fill:#552200;fill-opacity:1;stroke:#000000;stroke-width:0.50000000000000000;stroke-miterlimit:4;stroke-opacity:1;stroke-dasharray:none"
     id="path3866"
     sodipodi:cx="415.82324"
     sodipodi:cy="47.227802"
     sodipodi:rx="8.8915272"
     sodipodi:ry="11.201015"
     d="m 424.71477,47.227802 a 8.8915272,11.201015 0 1 1 -17.78305,0 8.8915272,11.201015 0 1 1 17.78305,0 z"
     transform="translate(-0.92379504,-4.9653983)" />
  <path
     sodipodi:type="arc"
     style="fill:#740000;fill-opacity:1;fill-rule:evenodd;stroke:#000000;stroke-opacity:1;stroke-width:0.06607662;stroke-miterlimit:4;stroke-dasharray:none"
     id="path3600"
     sodipodi:cx="443.6709"
     sodipodi:cy="18.544304"
     sodipodi:rx="3.4810126"
     sodipodi:ry="2.8481014"
     d="m 447.15191,18.544304 a 3.4810126,2.8481014 0 1 1 -6.96202,0 3.4810126,2.8481014 0 1 1 6.96202,0 z"
     transform="matrix(7.4697318,2.0159968,-1.9283648,7.1450351,-2866.4276,-960.55401)" />
  <path
     sodipodi:type="arc"
     style="fill:#ffffff;fill-opacity:1;stroke:#000000;stroke-opacity:1;stroke-width:0.16674701;stroke-miterlimit:4;stroke-dasharray:none"
     id="path3602"
     sodipodi:cx="440.50632"
     sodipodi:cy="31.044304"
     sodipodi:rx="1.8987342"
     sodipodi:ry="1.7405063"
     d="m 442.40505,31.044304 a 1.8987342,1.7405063 0 1 1 -3.79747,0 1.8987342,1.7405063 0 1 1 3.79747,0 z"
     transform="matrix(3.0608318,2.9725806,-1.6076473,1.3762494,-886.30937,-1284.4293)"
     inkscape:transform-center-x="5.8309894"
     inkscape:transform-center-y="-6.7253016" />
  <path
     sodipodi:type="arc"
     style="fill:#63ff00;fill-opacity:1;stroke:none"
     id="path5052"
     sodipodi:cx="426.03183"
     sodipodi:cy="19.515596"
     sodipodi:rx="0.35259575"
     sodipodi:ry="0.51286656"
     d="m 426.38443,19.515596 a 0.35259575,0.51286656 0 1 1 -0.7052,0 0.35259575,0.51286656 0 1 1 0.7052,0 z"
     transform="matrix(6.4959963,-2.4601944,5.1216019,4.8386061,-2453.9107,1023.6773)" />
  <path
     transform="matrix(4.8333558,1.3044685,-1.1766294,4.3596824,-1695.2545,-577.76653)"
     sodipodi:type="arc"
     style="fill:#000000;fill-opacity:1;stroke:none"
     id="path5044"
     sodipodi:cx="440.75488"
     sodipodi:cy="17.039326"
     sodipodi:rx="0.32637057"
     sodipodi:ry="0.29201579"
     d="m 441.08125,17.039326 a 0.32637057,0.29201579 0 1 1 -0.65274,0 0.32637057,0.29201579 0 1 1 0.65274,0 z" />
  <path
     sodipodi:type="arc"
     style="fill:#ffff00;fill-opacity:1;stroke:#000000;stroke-width:0.10516004000000000;stroke-miterlimit:4;stroke-dasharray:none;stroke-opacity:1"
     id="path5048"
     sodipodi:cx="422.70142"
     sodipodi:cy="18.842953"
     sodipodi:rx="1.3741919"
     sodipodi:ry="1.5459659"
     d="m 424.07561,18.842953 a 1.3741919,1.5459659 0 1 1 -2.74839,0 1.3741919,1.5459659 0 1 1 2.74839,0 z"
     transform="matrix(4.8333558,1.3044685,-1.1766294,4.3596824,-1597.3526,-545.39926)" />
  <path
     sodipodi:type="arc"
     style="fill:#ffff00;fill-opacity:1;stroke:#000000;stroke-opacity:1;stroke-width:0.10516004000000000;stroke-miterlimit:4;stroke-dasharray:none"
     id="path5046"
     sodipodi:cx="443.33148"
     sodipodi:cy="19.46134"
     sodipodi:rx="1.7349173"
     sodipodi:ry="1.5459659"
     d="m 445.0664,19.46134 a 1.7349173,1.5459659 0 1 1 -3.46984,0 1.7349173,1.5459659 0 1 1 3.46984,0 z"
     transform="matrix(4.8333558,1.3044685,-1.1766294,4.3596824,-1691.574,-578.8621)" />
  <path
     sodipodi:type="arc"
     style="fill:#ffff00;fill-opacity:1;stroke:none"
     id="path3848"
     sodipodi:cx="421.53922"
     sodipodi:cy="87.355148"
     sodipodi:rx="2.4826992"
     sodipodi:ry="3.8683918"
     d="m 424.02191,87.355148 a 2.4826992,3.8683918 0 1 1 -4.96539,0 2.4826992,3.8683918 0 1 1 4.96539,0 z"
     transform="matrix(1.1860465,0,0,1.3582089,-78.65685,-31.637819)" />
  <path
     sodipodi:type="arc"
     style="fill:#ffffff;fill-opacity:1;stroke:#000000;stroke-opacity:1;stroke-width:0.08507866;stroke-miterlimit:4;stroke-dasharray:none"
     id="path5050"
     sodipodi:cx="427.0473"
     sodipodi:cy="18.361986"
     sodipodi:rx="0.77298295"
     sodipodi:ry="0.75580555"
     d="m 427.82029,18.361986 a 0.77298295,0.75580555 0 1 1 -1.54597,0 0.77298295,0.75580555 0 1 1 1.54597,0 z"
     transform="matrix(5.9074346,1.5943503,-1.4707867,5.4496031,-2067.5974,-692.01992)" />
  <path
     sodipodi:type="arc"
     style="fill:#ffffff;fill-opacity:1;stroke:#000000;stroke-width:0.20523432999999999;stroke-miterlimit:4;stroke-dasharray:none;stroke-opacity:1"
     id="path3602-3"
     sodipodi:cx="440.50632"
     sodipodi:cy="31.044304"
     sodipodi:rx="1.8987342"
     sodipodi:ry="1.7405063"
     d="m 442.40505,31.044304 a 1.8987342,1.7405063 0 1 1 -3.79747,0 1.8987342,1.7405063 0 1 1 3.79747,0 z"
     transform="matrix(0.11201513,3.1581645,1.898344,0.53581606,323.49301,-1340.6475)"
     inkscape:transform-center-x="0.92134313"
     inkscape:transform-center-y="-6.8101193" />
  <path
     sodipodi:type="arc"
     style="fill:#63ff00;fill-opacity:1;stroke:none"
     id="path5052-8"
     sodipodi:cx="426.03183"
     sodipodi:cy="19.515596"
     sodipodi:rx="0.35259575"
     sodipodi:ry="0.51286656"
     d="m 426.38443,19.515596 a 0.35259575,0.51286656 0 1 1 -0.7052,0 0.35259575,0.51286656 0 1 1 0.7052,0 z"
     transform="matrix(-5.6046632,0.15148407,0.09726826,5.1833645,2818.2529,-96.393617)" />
  <path
     transform="matrix(-2.0814362,2.454798,3.622978,2.8966867,1288.1429,-1060.4584)"
     sodipodi:type="arc"
     style="fill:#000000;fill-opacity:1;stroke:none"
     id="path5044-2"
     sodipodi:cx="440.75488"
     sodipodi:cy="17.039326"
     sodipodi:rx="0.32637057"
     sodipodi:ry="0.29201579"
     d="m 441.08125,17.039326 a 0.32637057,0.29201579 0 1 1 -0.65274,0 0.32637057,0.29201579 0 1 1 0.65274,0 z" />
  <rect
     style="opacity:0.97000002;fill:#000000;fill-opacity:1;stroke:none"
     id="rect2862"
     width="17.37281"
     height="14.871225"
     x="307.96646"
     y="-84.050468"
     transform="matrix(0.96146414,0.27493036,-0.2468472,0.96905441,0,0)" />
  <rect
     style="fill:#6f0000;fill-opacity:1;stroke:#000000;stroke-opacity:1;stroke-width:0.60041416999999997;stroke-miterlimit:4;stroke-dasharray:none"
     id="rect5086"
     width="26.693348"
     height="51.682026"
     x="253.53752"
     y="192.00659"
     transform="matrix(0.82124556,-0.57057491,0.52667153,0.85006888,0,0)" />
  <path
     sodipodi:type="arc"
     style="fill:#ffffff;fill-opacity:1;stroke:#000000;stroke-opacity:1;stroke-width:0.09772107;stroke-miterlimit:4;stroke-dasharray:none"
     id="path5114"
     sodipodi:cx="421.88254"
     sodipodi:cy="21.209377"
     sodipodi:rx="3.8277624"
     sodipodi:ry="2.95961"
     d="m 425.7103,21.209377 a 3.8277624,2.95961 0 1 1 -7.65552,0 3.8277624,2.95961 0 1 1 7.65552,0 z"
     transform="matrix(5.9220066,6.2487474,-3.1672733,3.0238369,-2111.1079,-2647.4263)" />
  <path
     sodipodi:type="arc"
     style="fill:#ff0001;fill-opacity:1;stroke:#000000;stroke-opacity:1;stroke-width:0.10516004;stroke-miterlimit:4;stroke-dasharray:none"
     id="path5137"
     sodipodi:cx="444.0816"
     sodipodi:cy="19.961018"
     sodipodi:rx="0.6286177"
     sodipodi:ry="0.41907847"
     d="m 444.71022,19.961018 a 0.6286177,0.41907847 0 1 1 -1.25723,0 0.6286177,0.41907847 0 1 1 1.25723,0 z"
     transform="matrix(3.0663157,3.7241128,-3.9170769,2.6152347,-856.04048,-1618.472)" />
  <path
     sodipodi:type="arc"
     style="fill:#ffffff;fill-opacity:1;stroke:#000000;stroke-width:0.10052718;stroke-miterlimit:4;stroke-opacity:1;stroke-dasharray:none"
     id="path5139"
     sodipodi:cx="444.26849"
     sodipodi:cy="19.541939"
     sodipodi:rx="0.35111979"
     sodipodi:ry="0.36244625"
     d="m 444.61961,19.541939 a 0.35111979,0.36244625 0 1 1 -0.70224,0 0.35111979,0.36244625 0 1 1 0.70224,0 z"
     transform="matrix(4.1758592,1.1270175,-1.4903115,5.5219467,-1400.9538,-520.70849)" />
  <path
     sodipodi:type="arc"
     style="fill:#ffffff;fill-opacity:1;stroke:#000000;stroke-width:0.09663053;stroke-miterlimit:4;stroke-dasharray:none;stroke-opacity:1"
     id="path5139-5"
     sodipodi:cx="444.26849"
     sodipodi:cy="19.541939"
     sodipodi:rx="0.35111979"
     sodipodi:ry="0.36244625"
     d="m 444.61961,19.541939 a 0.35111979,0.36244625 0 1 1 -0.70224,0 0.35111979,0.36244625 0 1 1 0.70224,0 z"
     transform="matrix(4.8847261,1.3183328,-1.3788624,5.1090024,-1712.738,-597.39406)" />
  <path
     sodipodi:type="arc"
     style="opacity:0.97000001999999996;fill:#ffff00;fill-opacity:1;stroke:#000000;stroke-width:0.08422507;stroke-miterlimit:4;stroke-dasharray:none;stroke-opacity:1"
     id="path5218-26"
     sodipodi:cx="430.44974"
     sodipodi:cy="26.496298"
     sodipodi:rx="0.26012191"
     sodipodi:ry="0.57226819"
     d="m 430.70986,26.496298 a 0.26012191,0.57226819 0 1 1 -0.52024,0 0.26012191,0.57226819 0 1 1 0.52024,0 z"
     transform="matrix(5.3348979,0.17819589,0.23276561,6.6136614,-1947.3385,-148.3639)" />
  <path
     sodipodi:type="arc"
     style="opacity:0.97000001999999996;fill:#ffff00;fill-opacity:1;stroke:#000000;stroke-opacity:1;stroke-width:0.08422506;stroke-miterlimit:4;stroke-dasharray:none"
     id="path5218"
     sodipodi:cx="430.44974"
     sodipodi:cy="26.496298"
     sodipodi:rx="0.26012191"
     sodipodi:ry="0.57226819"
     d="m 430.70986,26.496298 a 0.26012191,0.57226819 0 1 1 -0.52024,0 0.26012191,0.57226819 0 1 1 0.52024,0 z"
     transform="matrix(4.4394677,4.0552537,-2.9675661,5.2275421,-1480.1462,-1782.1253)" />
  <path
     sodipodi:type="arc"
     style="opacity:0.97000001999999996;fill:#ffff00;fill-opacity:1;stroke:#000000;stroke-opacity:1;stroke-width:0.08422507;stroke-miterlimit:4;stroke-dasharray:none"
     id="path5218-2"
     sodipodi:cx="430.44974"
     sodipodi:cy="26.496298"
     sodipodi:rx="0.26012191"
     sodipodi:ry="0.57226819"
     d="m 430.70986,26.496298 a 0.26012191,0.57226819 0 1 1 -0.52024,0 0.26012191,0.57226819 0 1 1 0.52024,0 z"
     transform="matrix(4.8631342,-2.3013635,2.2057301,6.2029023,-1794.3515,927.4147)"
     inkscape:transform-center-x="-2.1082826"
     inkscape:transform-center-y="0.7954262" />
  <path
     sodipodi:type="arc"
     style="opacity:0.97000001999999996;fill:#ffff00;fill-opacity:1;stroke:#000000;stroke-opacity:1;stroke-width:0.08422507;stroke-miterlimit:4;stroke-dasharray:none"
     id="path5216"
     sodipodi:cx="430.42374"
     sodipodi:cy="25.351761"
     sodipodi:rx="0.54625601"
     sodipodi:ry="0.98846328"
     d="m 430.96999,25.351761 a 0.54625601,0.98846328 0 1 1 -1.09251,0 0.54625601,0.98846328 0 1 1 1.09251,0 z"
     transform="matrix(5.3357715,0.20418941,0.21179501,6.61291,-1947.7368,-159.13103)" />
  <path
     sodipodi:type="arc"
     style="fill:#a40000;fill-opacity:1;stroke:#000000;stroke-opacity:1;stroke-width:0.07244662;stroke-miterlimit:4;stroke-dasharray:none"
     id="path5163"
     sodipodi:cx="428.88901"
     sodipodi:cy="22.464409"
     sodipodi:rx="0.98846328"
     sodipodi:ry="2.1069875"
     d="m 429.87747,22.464409 a 0.98846328,2.1069875 0 1 1 -1.97693,0 0.98846328,2.1069875 0 1 1 1.97693,0 z"
     transform="matrix(6.9747484,-0.46289833,0.59018407,6.7901144,-2650.6292,126.49939)" />
  <path
     sodipodi:type="arc"
     style="fill:#a40000;fill-opacity:1;stroke:#000000;stroke-opacity:1;stroke-width:0.10423382;stroke-miterlimit:4;stroke-dasharray:none"
     id="path5187"
     sodipodi:cx="430.1636"
     sodipodi:cy="10.420764"
     sodipodi:rx="2.9914019"
     sodipodi:ry="5.3064871"
     d="m 433.15501,10.420764 a 2.9914019,5.3064871 0 1 1 -5.98281,0 2.9914019,5.3064871 0 1 1 5.98281,0 z"
     transform="matrix(4.700046,-1.374031,1.7324901,4.3892818,-1678.6834,586.38178)" />
  <rect
     style="fill:#a40000;fill-opacity:1;stroke:#000000;stroke-opacity:1;stroke-width:0.50575836;stroke-miterlimit:4;stroke-dasharray:none"
     id="rect5189"
     width="11.045167"
     height="13.620074"
     x="330.28159"
     y="-211.9321"
     transform="matrix(0.78652876,0.61755365,-0.43714933,0.89938894,0,0)" />
  <rect
     style="fill:#a40000;fill-opacity:1;stroke:#000000;stroke-width:0.51185347;stroke-miterlimit:4;stroke-dasharray:none;stroke-opacity:1"
     id="rect5189-9"
     width="8.3256903"
     height="10.979692"
     x="368.42511"
     y="-228.75171"
     transform="matrix(0.7883184,0.6152675,-0.35131134,0.93625869,0,0)" />
  <text
     xml:space="preserve"
     style="font-size:12px;font-style:normal;font-weight:normal;fill:#000000;fill-opacity:1;stroke:none;font-family:Bitstream Vera Sans"
     x="345.5863"
     y="111.99651"
     id="text2994"><tspan
       sodipodi:role="line"
       id="tspan2996"
       x="345.5863"
       y="111.99651">A</tspan></text>
  <text
     xml:space="preserve"
     style="font-size:11px;font-style:normal;font-weight:normal;fill:#000000;fill-opacity:1;stroke:none;font-family:Bitstream Vera Sans"
     x="355.62643"
     y="110.79168"
     id="text2998"><tspan
       sodipodi:role="line"
       id="tspan3000"
       x="355.62643"
       y="110.79168">A</tspan></text>
  <path
     sodipodi:type="arc"
     style="opacity:0.97000001999999996;fill:#ffffff;fill-opacity:1;stroke:#000000;stroke-opacity:1;stroke-width:0.04725861;stroke-miterlimit:4;stroke-dasharray:none"
     id="path5287"
     sodipodi:cx="429.70245"
     sodipodi:cy="26.407906"
     sodipodi:rx="0.14590332"
     sodipodi:ry="0.24031135"
     d="m 429.84836,26.407906 a 0.14590332,0.24031135 0 1 1 -0.29181,0 0.14590332,0.24031135 0 1 1 0.29181,0 z"
     transform="matrix(9.7015829,1.4957372,-3.251903,6.8830455,-3732.6418,-723.21153)" />
  <path
     sodipodi:type="arc"
     style="opacity:0.97000001999999996;fill:#ffffff;fill-opacity:1;stroke:#000000;stroke-opacity:1;stroke-width:0.06272391;stroke-miterlimit:4;stroke-dasharray:none"
     id="path5287-1"
     sodipodi:cx="429.70245"
     sodipodi:cy="26.407906"
     sodipodi:rx="0.14590332"
     sodipodi:ry="0.24031135"
     d="m 429.84836,26.407906 a 0.14590332,0.24031135 0 1 1 -0.29181,0 0.14590332,0.24031135 0 1 1 0.29181,0 z"
     transform="matrix(4.8054746,2.5768762,-1.0715067,7.8882823,-1682.4793,-1210.9948)" />
  <path
     sodipodi:type="arc"
     style="opacity:0.97000001999999996;fill:#ffffff;fill-opacity:1;stroke:#000000;stroke-opacity:1;stroke-width:0.07775736;stroke-miterlimit:4;stroke-dasharray:none"
     id="path5287-1-1"
     sodipodi:cx="429.70245"
     sodipodi:cy="26.407906"
     sodipodi:rx="0.14590332"
     sodipodi:ry="0.24031135"
     d="m 429.84836,26.407906 a 0.14590332,0.24031135 0 1 1 -0.29181,0 0.14590332,0.24031135 0 1 1 0.29181,0 z"
     transform="matrix(3.3910168,-1.5024135,1.5181001,7.1312115,-1139.8739,560.68021)" />
  <text
     xml:space="preserve"
     style="font-size:10px;font-style:normal;font-weight:normal;fill:#000000;fill-opacity:1;stroke:none;font-family:Bitstream Vera Sans"
     x="362.93054"
     y="114.50618"
     id="text3002"><tspan
       sodipodi:role="line"
       id="tspan3004"
       x="362.93054"
       y="114.50618">G</tspan></text>
  <path
     sodipodi:type="arc"
     style="opacity:0.97000002;fill:#ffffff;fill-opacity:1;stroke:#000000;stroke-width:0.0563742;stroke-miterlimit:4;stroke-opacity:1;stroke-dasharray:none"
     id="path5287-0"
     sodipodi:cx="429.70245"
     sodipodi:cy="26.407906"
     sodipodi:rx="0.14590332"
     sodipodi:ry="0.24031135"
     d="m 429.84836,26.407906 a 0.14590332,0.24031135 0 1 1 -0.29181,0 0.14590332,0.24031135 0 1 1 0.29181,0 z"
     transform="matrix(12.372087,1.8707288,-4.1470374,8.6086717,-4840.6005,-926.3246)" />
  <path
     sodipodi:type="arc"
     style="opacity:0.97000001999999996;fill:#ffffff;fill-opacity:1;stroke:#000000;stroke-opacity:1;stroke-width:0.0613209;stroke-miterlimit:4;stroke-dasharray:none"
     id="path5287-1-3"
     sodipodi:cx="429.70245"
     sodipodi:cy="26.407906"
     sodipodi:rx="0.14590332"
     sodipodi:ry="0.24031135"
     d="m 429.84836,26.407906 a 0.14590332,0.24031135 0 1 1 -0.29181,0 0.14590332,0.24031135 0 1 1 0.29181,0 z"
     transform="matrix(4.7696086,2.7164165,-1.0635094,8.3154403,-1650.8172,-1279.5071)" />
  <path
     sodipodi:type="arc"
     style="opacity:0.97000001999999996;fill:#ffffff;fill-opacity:1;stroke:#000000;stroke-opacity:1;stroke-width:0.0647103;stroke-miterlimit:4;stroke-dasharray:none"
     id="path5287-1-1-1"
     sodipodi:cx="429.70245"
     sodipodi:cy="26.407906"
     sodipodi:rx="0.14590332"
     sodipodi:ry="0.24031135"
     d="m 429.84836,26.407906 a 0.14590332,0.24031135 0 1 1 -0.29181,0 0.14590332,0.24031135 0 1 1 0.29181,0 z"
     transform="matrix(3.6499011,-2.0154614,1.6339981,9.566395,-1237.8157,719.44904)" />
  <rect
     style="opacity:0.97000002;fill:#000000;fill-opacity:1;stroke:none"
     id="rect2864"
     width="5.4751139"
     height="4.9385476"
     x="307.20355"
     y="-73.368965"
     transform="matrix(0.9654561,0.26056577,-0.26056577,0.9654561,0,0)" />
  <rect
     style="opacity:0.97000002;fill:#000000;fill-opacity:1;stroke:none"
     id="rect2864-9"
     width="5.4751139"
     height="4.9385476"
     x="311.26263"
     y="-78.413666"
     transform="matrix(0.9654561,0.26056577,-0.26056577,0.9654561,0,0)" />
  <text
     xml:space="preserve"
     style="font-size:28px;font-style:normal;font-weight:normal;fill:#000000;fill-opacity:1;stroke:none;font-family:Bitstream Vera Sans"
     x="319.4819"
     y="94.727417"
     id="text2978"><tspan
       sodipodi:role="line"
       id="tspan2980"
       x="319.4819"
       y="94.727417"
       style="font-size:20px">A</tspan></text>
  <text
     xml:space="preserve"
     style="font-size:16px;font-style:normal;font-weight:normal;fill:#000000;fill-opacity:1;stroke:none;font-family:Bitstream Vera Sans"
     x="325.50598"
     y="105.97241"
     id="text2986"><tspan
       sodipodi:role="line"
       id="tspan2988"
       x="325.50598"
       y="105.97241">U</tspan></text>
  <text
     xml:space="preserve"
     style="font-size:14px;font-style:normal;font-weight:normal;fill:#000000;fill-opacity:1;stroke:none;font-family:Bitstream Vera Sans"
     x="334.34131"
     y="114.00452"
     id="text2990"><tspan
       sodipodi:role="line"
       id="tspan2992"
       x="334.34131"
       y="114.00452">G</tspan></text>
  <text
     xml:space="preserve"
     style="font-size:8px;font-style:normal;font-weight:normal;fill:#000000;fill-opacity:1;stroke:none;font-family:Bitstream Vera Sans"
     x="377.32205"
     y="103.36995"
     id="text3010"><tspan
       sodipodi:role="line"
       id="tspan3012"
       x="377.32205"
       y="103.36995">A</tspan></text>
  <text
     xml:space="preserve"
     style="font-size:6px;font-style:normal;font-weight:normal;fill:#000000;fill-opacity:1;stroke:none;font-family:Bitstream Vera Sans"
     x="384.11292"
     y="104.47036"
     id="text3014"><tspan
       sodipodi:role="line"
       id="tspan3016"
       x="384.11292"
       y="104.47036">A</tspan></text>
  <text
     xml:space="preserve"
     style="font-size:4px;font-style:normal;font-weight:normal;fill:#000000;fill-opacity:1;stroke:none;font-family:Bitstream Vera Sans"
     x="390.66495"
     y="105.72681"
     id="text3018"><tspan
       sodipodi:role="line"
       id="tspan3020"
       x="390.66495"
       y="105.72681">U</tspan></text>
  <text
     xml:space="preserve"
     style="font-size:18px;font-style:normal;font-weight:normal;fill:#000000;fill-opacity:1;stroke:none;font-family:Bitstream Vera Sans"
     x="409.901"
     y="113.36634"
     id="text3022"><tspan
       sodipodi:role="line"
       id="tspan3024"
       x="409.901"
       y="113.36634" /></text>
  <path
     sodipodi:type="arc"
     style="fill:#ffffff;fill-opacity:1;stroke:#000000;stroke-opacity:1;stroke-width:0.46918199;stroke-miterlimit:4;stroke-dasharray:none"
     id="path3868"
     sodipodi:cx="407.10492"
     sodipodi:cy="38.509487"
     sodipodi:rx="6.6397767"
     sodipodi:ry="6.4088283"
     d="m 413.7447,38.509487 a 6.6397767,6.4088283 0 1 1 -13.27956,0 6.6397767,6.4088283 0 1 1 13.27956,0 z"
     transform="matrix(1.1565218,0,0,0.98198198,-64.760041,0.57839024)" />
  <path
     sodipodi:type="arc"
     style="fill:#ffffff;fill-opacity:1;stroke:none"
     id="path3870"
     sodipodi:cx="399.71457"
     sodipodi:cy="25.172195"
     sodipodi:rx="5.715982"
     sodipodi:ry="3.9261289"
     d="m 405.43055,25.172195 a 5.715982,3.9261289 0 1 1 -11.43196,0 5.715982,3.9261289 0 1 1 11.43196,0 z"
     transform="matrix(1.1717172,0,0,2.0882354,-64.19209,-15.961308)" />
  <path
     sodipodi:type="arc"
     style="fill:#ffffff;fill-opacity:1;stroke:none"
     id="path3872"
     sodipodi:cx="291.45734"
     sodipodi:cy="36.546421"
     sodipodi:rx="11.201015"
     sodipodi:ry="19.803856"
     d="m 302.65835,36.546421 a 11.201015,19.803856 0 1 1 -22.40203,0 11.201015,19.803856 0 1 1 22.40203,0 z"
     transform="matrix(1.1966913,-0.64444363,0.60689524,1.2494327,-60.049544,192.45341)" />
  <path
     sodipodi:type="arc"
     style="fill:#ffffff;fill-opacity:1;stroke:none"
     id="path3876"
     sodipodi:cx="327.42761"
     sodipodi:cy="68.590561"
     sodipodi:rx="14.722983"
     sodipodi:ry="9.2379503"
     d="m 342.1506,68.590561 a 14.722983,9.2379503 0 1 1 -29.44597,0 14.722983,9.2379503 0 1 1 29.44597,0 z"
     transform="matrix(0.81065324,0.68439179,-0.71005453,0.78135466,116.18544,-208.74533)" />
  <path
     sodipodi:type="arc"
     style="fill:#6d0000;fill-opacity:1;stroke:none"
     id="path3878"
     sodipodi:cx="282.91223"
     sodipodi:cy="33.7173"
     sodipodi:rx="5.4272957"
     sodipodi:ry="4.3880262"
     d="m 288.33953,33.7173 a 5.4272957,4.3880262 0 1 1 -10.85459,0 5.4272957,4.3880262 0 1 1 10.85459,0 z"
     transform="matrix(1.0531915,0,0,1.4210527,48.173699,8.5516945)" />
  <path
     sodipodi:type="arc"
     style="fill:#a40000;fill-opacity:1;stroke:none"
     id="path5187-2"
     sodipodi:cx="430.1636"
     sodipodi:cy="10.420764"
     sodipodi:rx="2.9914019"
     sodipodi:ry="5.3064871"
     d="m 433.15501,10.420764 a 2.9914019,5.3064871 0 1 1 -5.98281,0 2.9914019,5.3064871 0 1 1 5.98281,0 z"
     transform="matrix(3.446819,-0.85223969,1.2705364,2.7224424,-1137.4459,370.50644)" />
  <path
     sodipodi:type="arc"
     style="fill:#a40000;fill-opacity:1;stroke:none"
     id="path5187-2-3"
     sodipodi:cx="430.1636"
     sodipodi:cy="10.420764"
     sodipodi:rx="2.9914019"
     sodipodi:ry="5.3064871"
     d="m 433.15501,10.420764 a 2.9914019,5.3064871 0 1 1 -5.98281,0 2.9914019,5.3064871 0 1 1 5.98281,0 z"
     transform="matrix(3.446819,-0.85223969,1.2705364,2.7224424,-1136.0025,370.67965)" />
  <path
     sodipodi:type="arc"
     style="fill:#a40000;fill-opacity:1;stroke:none"
     id="path5187-2-3-8"
     sodipodi:cx="430.1636"
     sodipodi:cy="10.420764"
     sodipodi:rx="2.9914019"
     sodipodi:ry="5.3064871"
     d="m 433.15501,10.420764 a 2.9914019,5.3064871 0 1 1 -5.98281,0 2.9914019,5.3064871 0 1 1 5.98281,0 z"
     transform="matrix(1.6257338,-1.06001,1.0245336,1.6980537,-332.40677,464.60965)" />
  <path
     sodipodi:type="arc"
     style="fill:#a40000;fill-opacity:1;stroke:none"
     id="path5187-2-3-8-7"
     sodipodi:cx="430.1636"
     sodipodi:cy="10.420764"
     sodipodi:rx="2.9914019"
     sodipodi:ry="5.3064871"
     d="m 433.15501,10.420764 a 2.9914019,5.3064871 0 1 1 -5.98281,0 2.9914019,5.3064871 0 1 1 5.98281,0 z"
     transform="matrix(-0.13647809,-0.84065471,1.0166595,0.39128448,419.65235,381.96319)" />
  <path
     sodipodi:type="arc"
     style="fill:#a40000;fill-opacity:1;stroke:none"
     id="path5187-2-3-8-7-9"
     sodipodi:cx="430.1636"
     sodipodi:cy="10.420764"
     sodipodi:rx="2.9914019"
     sodipodi:ry="5.3064871"
     d="m 433.15501,10.420764 a 2.9914019,5.3064871 0 1 1 -5.98281,0 2.9914019,5.3064871 0 1 1 5.98281,0 z"
     transform="matrix(-0.55238661,-0.2452675,0.62167849,-0.52303583,601.00268,130.35407)" />
  <path
     sodipodi:type="arc"
     style="fill:#ffffff;fill-opacity:1;stroke:none"
     id="path4018"
     sodipodi:cx="343.41058"
     sodipodi:cy="97.15316"
     sodipodi:rx="2.4874623"
     sodipodi:ry="2.1119962"
     d="m 345.89805,97.15316 a 2.4874623,2.1119962 0 1 1 -4.97493,0 2.4874623,2.1119962 0 1 1 4.97493,0 z"
     transform="translate(5.7258564,2.8159949)" />
  <path
     sodipodi:type="arc"
     style="fill:#ffffff;fill-opacity:1;stroke:none"
     id="path4018-1"
     sodipodi:cx="343.41058"
     sodipodi:cy="97.15316"
     sodipodi:rx="2.4874623"
     sodipodi:ry="2.1119962"
     d="m 345.89805,97.15316 a 2.4874623,2.1119962 0 1 1 -4.97493,0 2.4874623,2.1119962 0 1 1 4.97493,0 z"
     transform="matrix(0.35109771,0.59993044,-0.38565363,0.54617457,266.25361,-157.72418)" />
  <path
     sodipodi:type="arc"
     style="fill:#ffffff;fill-opacity:1;stroke:none"
     id="path4018-15"
     sodipodi:cx="343.41058"
     sodipodi:cy="97.15316"
     sodipodi:rx="2.4874623"
     sodipodi:ry="2.1119962"
     d="m 345.89805,97.15316 a 2.4874623,2.1119962 0 1 1 -4.97493,0 2.4874623,2.1119962 0 1 1 4.97493,0 z"
     transform="matrix(0.29791424,0,0,1.0048357,251.47937,7.59332)" />
  <path
     sodipodi:type="arc"
     style="fill:#ffffff;fill-opacity:1;stroke:none"
     id="path4018-15-0"
     sodipodi:cx="343.41058"
     sodipodi:cy="97.15316"
     sodipodi:rx="2.4874623"
     sodipodi:ry="2.1119962"
     d="m 345.89805,97.15316 a 2.4874623,2.1119962 0 1 1 -4.97493,0 2.4874623,2.1119962 0 1 1 4.97493,0 z"
     transform="matrix(0.23413542,0.05467074,-0.13941953,0.59708448,286.9778,27.309704)" />
  <path
     sodipodi:type="arc"
     style="fill:#ffffff;fill-opacity:1;stroke:none"
     id="path4018-15-0-9"
     sodipodi:cx="343.41058"
     sodipodi:cy="97.15316"
     sodipodi:rx="2.4874623"
     sodipodi:ry="2.1119962"
     d="m 345.89805,97.15316 a 2.4874623,2.1119962 0 1 1 -4.97493,0 2.4874623,2.1119962 0 1 1 4.97493,0 z"
     transform="matrix(0.19889927,-0.0377049,0.06694468,0.72853832,282.56302,46.383877)" />
  <path
     sodipodi:type="arc"
     style="fill:#ffffff;fill-opacity:1;stroke:none"
     id="path5287-0-6"
     sodipodi:cx="429.70245"
     sodipodi:cy="26.407906"
     sodipodi:rx="0.14590332"
     sodipodi:ry="0.24031135"
     d="m 429.84836,26.407906 a 0.14590332,0.24031135 0 1 1 -0.29181,0 0.14590332,0.24031135 0 1 1 0.29181,0 z"
     transform="matrix(8.3269651,6.6332323,-6.644964,5.1824589,-3036.6879,-2884.1127)" />
  <path
     sodipodi:type="arc"
     style="fill:#ffffff;fill-opacity:1;stroke:none"
     id="path5287-0-6-1"
     sodipodi:cx="429.70245"
     sodipodi:cy="26.407906"
     sodipodi:rx="0.14590332"
     sodipodi:ry="0.24031135"
     d="m 429.84836,26.407906 a 0.14590332,0.24031135 0 1 1 -0.29181,0 0.14590332,0.24031135 0 1 1 0.29181,0 z"
     transform="matrix(7.8701835,8.5714081,-6.6356408,5.4565499,-2841.7875,-3721.4732)" />
  <path
     sodipodi:type="arc"
     style="fill:#ffffff;fill-opacity:1;stroke:none"
     id="path5287-0-6-1-1"
     sodipodi:cx="429.70245"
     sodipodi:cy="26.407906"
     sodipodi:rx="0.14590332"
     sodipodi:ry="0.24031135"
     d="m 429.84836,26.407906 a 0.14590332,0.24031135 0 1 1 -0.29181,0 0.14590332,0.24031135 0 1 1 0.29181,0 z"
     transform="matrix(3.972853,-8.5652474,3.7995886,4.014806,-1441.7485,3680.1713)" />
  <path
     sodipodi:type="arc"
     style="fill:#ffffff;fill-opacity:1;stroke:none"
     id="path5287-0-6-1-1-3"
     sodipodi:cx="429.70245"
     sodipodi:cy="26.407906"
     sodipodi:rx="0.14590332"
     sodipodi:ry="0.24031135"
     d="m 429.84836,26.407906 a 0.14590332,0.24031135 0 1 1 -0.29181,0 0.14590332,0.24031135 0 1 1 0.29181,0 z"
     transform="matrix(2.6974841,-10.559804,2.5798412,4.9497187,-856.96354,4514.7234)" />
  <path
     sodipodi:type="arc"
     style="fill:#ffffff;fill-opacity:1;stroke:none"
     id="path5287-0-6-1-1-3-0"
     sodipodi:cx="429.70245"
     sodipodi:cy="26.407906"
     sodipodi:rx="0.14590332"
     sodipodi:ry="0.24031135"
     d="m 429.84836,26.407906 a 0.14590332,0.24031135 0 1 1 -0.29181,0 0.14590332,0.24031135 0 1 1 0.29181,0 z"
     transform="matrix(0.53694144,-13.219213,2.2849283,6.196269,82.626064,5623.2111)" />
  <path
     sodipodi:type="arc"
     style="fill:#ffffff;fill-opacity:1;stroke:none"
     id="path5287-0-6-1-1-3-0-1"
     sodipodi:cx="429.70245"
     sodipodi:cy="26.407906"
     sodipodi:rx="0.14590332"
     sodipodi:ry="0.24031135"
     d="m 429.84836,26.407906 a 0.14590332,0.24031135 0 1 1 -0.29181,0 0.14590332,0.24031135 0 1 1 0.29181,0 z"
     transform="matrix(0.53694144,-7.2355427,2.2849283,3.3915309,82.748615,3127.4899)" />
  <path
     sodipodi:type="arc"
     style="fill:#ffffff;fill-opacity:1;stroke:none"
     id="path5287-0-6-1-1-3-0-1-4"
     sodipodi:cx="429.70245"
     sodipodi:cy="26.407906"
     sodipodi:rx="0.14590332"
     sodipodi:ry="0.24031135"
     d="m 429.84836,26.407906 a 0.14590332,0.24031135 0 1 1 -0.29181,0 0.14590332,0.24031135 0 1 1 0.29181,0 z"
     transform="matrix(-4.3901275,-5.7765184,3.9582256,1.0275357,2156.3468,2563.4824)" />
  <path
     sodipodi:type="arc"
     style="fill:#ffffff;fill-opacity:1;stroke:none"
     id="path3717"
     sodipodi:cx="425.07822"
     sodipodi:cy="89.581993"
     sodipodi:rx="1.1134663"
     sodipodi:ry="1.2214892"
     d="m 426.19168,89.581993 a 1.1134663,1.2214892 0 1 1 -2.22693,0 1.1134663,1.2214892 0 1 1 2.22693,0 z"
     transform="matrix(1.1268656,0,0,1.6938775,-54.069095,-63.006495)" />
  <path
     sodipodi:type="arc"
     style="fill:#ffffff;fill-opacity:1;stroke:none"
     id="path3717-4"
     sodipodi:cx="425.07822"
     sodipodi:cy="89.581993"
     sodipodi:rx="1.1134663"
     sodipodi:ry="1.2214892"
     d="m 426.19168,89.581993 a 1.1134663,1.2214892 0 1 1 -2.22693,0 1.1134663,1.2214892 0 1 1 2.22693,0 z"
     transform="matrix(2.5970149,0,0,1.6938775,-672.79865,-58.893319)" />
  <path
     sodipodi:type="arc"
     style="fill:#ffffff;fill-opacity:1;stroke:none"
     id="path3717-3"
     sodipodi:cx="425.07822"
     sodipodi:cy="89.581993"
     sodipodi:rx="1.1134663"
     sodipodi:ry="1.2214892"
     d="m 426.19168,89.581993 a 1.1134663,1.2214892 0 1 1 -2.22693,0 1.1134663,1.2214892 0 1 1 2.22693,0 z"
     transform="matrix(0.67903218,-0.58384544,0.86041086,1.0006872,59.832749,248.66684)" />
  <path
     sodipodi:type="arc"
     style="fill:#ffffff;fill-opacity:1;stroke:none"
     id="path3717-3-3"
     sodipodi:cx="425.07822"
     sodipodi:cy="89.581993"
     sodipodi:rx="1.1134663"
     sodipodi:ry="1.2214892"
     d="m 426.19168,89.581993 a 1.1134663,1.2214892 0 1 1 -2.22693,0 1.1134663,1.2214892 0 1 1 2.22693,0 z"
     transform="matrix(1.2665342,0.21042421,-0.4512084,1.2827778,-66.986334,-114.86995)" />
  <path
     sodipodi:type="arc"
     style="fill:#ffffff;fill-opacity:1;stroke:none"
     id="path3717-3-3-6"
     sodipodi:cx="425.07822"
     sodipodi:cy="89.581993"
     sodipodi:rx="1.1134663"
     sodipodi:ry="1.2214892"
     d="m 426.19168,89.581993 a 1.1134663,1.2214892 0 1 1 -2.22693,0 1.1134663,1.2214892 0 1 1 2.22693,0 z"
     transform="matrix(1.1539587,-0.45019209,0.33000122,1.5057181,-89.539049,144.18568)" />
  <path
     sodipodi:type="arc"
     style="fill:#ffffff;fill-opacity:1;stroke:none"
     id="path3717-3-3-6-3"
     sodipodi:cx="425.07822"
     sodipodi:cy="89.581993"
     sodipodi:rx="1.1134663"
     sodipodi:ry="1.2214892"
     d="m 426.19168,89.581993 a 1.1134663,1.2214892 0 1 1 -2.22693,0 1.1134663,1.2214892 0 1 1 2.22693,0 z"
     transform="matrix(1.3817542,-0.46981073,0.39514462,1.5713349,-191.85662,147.17056)" />
  <path
     sodipodi:type="arc"
     style="fill:#ffffff;fill-opacity:1;stroke:none"
     id="path3717-3-3-6-3-7"
     sodipodi:cx="425.07822"
     sodipodi:cy="89.581993"
     sodipodi:rx="1.1134663"
     sodipodi:ry="1.2214892"
     d="m 426.19168,89.581993 a 1.1134663,1.2214892 0 1 1 -2.22693,0 1.1134663,1.2214892 0 1 1 2.22693,0 z"
     transform="matrix(0.6343002,-0.15591258,0.18139283,0.52146718,144.14562,105.64467)" />
</svg>
