<?xml version="1.0" encoding="UTF-8" standalone="no"?>
<!-- Created with Inkscape (http://www.inkscape.org/) -->

<svg
   xmlns:dc="http://purl.org/dc/elements/1.1/"
   xmlns:cc="http://creativecommons.org/ns#"
   xmlns:rdf="http://www.w3.org/1999/02/22-rdf-syntax-ns#"
   xmlns:svg="http://www.w3.org/2000/svg"
   xmlns="http://www.w3.org/2000/svg"
   xmlns:sodipodi="http://sodipodi.sourceforge.net/DTD/sodipodi-0.dtd"
   xmlns:inkscape="http://www.inkscape.org/namespaces/inkscape"
   id="svg3627"
   version="1.1"
   inkscape:version="0.47 r22583"
   width="450"
   height="150"
   sodipodi:docname="banner_new.svg">
  <metadata
     id="metadata3633">
    <rdf:RDF>
      <cc:Work
         rdf:about="">
        <dc:format>image/svg+xml</dc:format>
        <dc:type
           rdf:resource="http://purl.org/dc/dcmitype/StillImage" />
        <dc:title></dc:title>
      </cc:Work>
    </rdf:RDF>
  </metadata>
  <defs
     id="defs3631">
    <inkscape:perspective
       sodipodi:type="inkscape:persp3d"
       inkscape:vp_x="0 : 0.5 : 1"
       inkscape:vp_y="0 : 1000 : 0"
       inkscape:vp_z="1 : 0.5 : 1"
       inkscape:persp3d-origin="0.5 : 0.33333333 : 1"
       id="perspective3635" />
    <inkscape:perspective
       id="perspective4447"
       inkscape:persp3d-origin="0.5 : 0.33333333 : 1"
       inkscape:vp_z="1 : 0.5 : 1"
       inkscape:vp_y="0 : 1000 : 0"
       inkscape:vp_x="0 : 0.5 : 1"
       sodipodi:type="inkscape:persp3d" />
    <inkscape:perspective
       id="perspective4475"
       inkscape:persp3d-origin="0.5 : 0.33333333 : 1"
       inkscape:vp_z="1 : 0.5 : 1"
       inkscape:vp_y="0 : 1000 : 0"
       inkscape:vp_x="0 : 0.5 : 1"
       sodipodi:type="inkscape:persp3d" />
    <inkscape:perspective
       id="perspective4489"
       inkscape:persp3d-origin="0.5 : 0.33333333 : 1"
       inkscape:vp_z="1 : 0.5 : 1"
       inkscape:vp_y="0 : 1000 : 0"
       inkscape:vp_x="0 : 0.5 : 1"
       sodipodi:type="inkscape:persp3d" />
    <inkscape:perspective
       id="perspective4503"
       inkscape:persp3d-origin="0.5 : 0.33333333 : 1"
       inkscape:vp_z="1 : 0.5 : 1"
       inkscape:vp_y="0 : 1000 : 0"
       inkscape:vp_x="0 : 0.5 : 1"
       sodipodi:type="inkscape:persp3d" />
    <inkscape:perspective
       id="perspective4521"
       inkscape:persp3d-origin="0.5 : 0.33333333 : 1"
       inkscape:vp_z="1 : 0.5 : 1"
       inkscape:vp_y="0 : 1000 : 0"
       inkscape:vp_x="0 : 0.5 : 1"
       sodipodi:type="inkscape:persp3d" />
    <inkscape:perspective
       id="perspective4539"
       inkscape:persp3d-origin="0.5 : 0.33333333 : 1"
       inkscape:vp_z="1 : 0.5 : 1"
       inkscape:vp_y="0 : 1000 : 0"
       inkscape:vp_x="0 : 0.5 : 1"
       sodipodi:type="inkscape:persp3d" />
    <inkscape:perspective
       id="perspective4553"
       inkscape:persp3d-origin="0.5 : 0.33333333 : 1"
       inkscape:vp_z="1 : 0.5 : 1"
       inkscape:vp_y="0 : 1000 : 0"
       inkscape:vp_x="0 : 0.5 : 1"
       sodipodi:type="inkscape:persp3d" />
    <inkscape:perspective
       id="perspective4567"
       inkscape:persp3d-origin="0.5 : 0.33333333 : 1"
       inkscape:vp_z="1 : 0.5 : 1"
       inkscape:vp_y="0 : 1000 : 0"
       inkscape:vp_x="0 : 0.5 : 1"
       sodipodi:type="inkscape:persp3d" />
    <inkscape:perspective
       id="perspective4597"
       inkscape:persp3d-origin="0.5 : 0.33333333 : 1"
       inkscape:vp_z="1 : 0.5 : 1"
       inkscape:vp_y="0 : 1000 : 0"
       inkscape:vp_x="0 : 0.5 : 1"
       sodipodi:type="inkscape:persp3d" />
    <inkscape:perspective
       id="perspective4670"
       inkscape:persp3d-origin="0.5 : 0.33333333 : 1"
       inkscape:vp_z="1 : 0.5 : 1"
       inkscape:vp_y="0 : 1000 : 0"
       inkscape:vp_x="0 : 0.5 : 1"
       sodipodi:type="inkscape:persp3d" />
    <inkscape:perspective
       id="perspective4700"
       inkscape:persp3d-origin="0.5 : 0.33333333 : 1"
       inkscape:vp_z="1 : 0.5 : 1"
       inkscape:vp_y="0 : 1000 : 0"
       inkscape:vp_x="0 : 0.5 : 1"
       sodipodi:type="inkscape:persp3d" />
    <inkscape:perspective
       id="perspective4730"
       inkscape:persp3d-origin="0.5 : 0.33333333 : 1"
       inkscape:vp_z="1 : 0.5 : 1"
       inkscape:vp_y="0 : 1000 : 0"
       inkscape:vp_x="0 : 0.5 : 1"
       sodipodi:type="inkscape:persp3d" />
    <inkscape:perspective
       id="perspective4760"
       inkscape:persp3d-origin="0.5 : 0.33333333 : 1"
       inkscape:vp_z="1 : 0.5 : 1"
       inkscape:vp_y="0 : 1000 : 0"
       inkscape:vp_x="0 : 0.5 : 1"
       sodipodi:type="inkscape:persp3d" />
  </defs>
  <sodipodi:namedview
     pagecolor="#ffffff"
     bordercolor="#666666"
     borderopacity="1"
     objecttolerance="10"
     gridtolerance="10"
     guidetolerance="10"
     inkscape:pageopacity="0"
     inkscape:pageshadow="2"
     inkscape:window-width="1920"
     inkscape:window-height="1125"
     id="namedview3629"
     showgrid="false"
     inkscape:zoom="3.2796268"
     inkscape:cx="332.8825"
     inkscape:cy="67.776046"
     inkscape:window-x="0"
     inkscape:window-y="25"
     inkscape:window-maximized="1"
     inkscape:current-layer="svg3627" />
  <text
     xml:space="preserve"
     style="font-size:48px;font-style:italic;font-weight:bold;fill:#000000;fill-opacity:1;stroke:none;font-family:Sans;-inkscape-font-specification:Sans Bold Italic"
     x="0.81283379"
     y="126.73797"
     id="text3639"><tspan
       sodipodi:role="line"
       id="tspan3641"
       x="0.81283379"
       y="126.73797">RNA</tspan></text>
  <text
     xml:space="preserve"
     style="font-size:48px;font-style:normal;font-weight:normal;fill:#000000;fill-opacity:1;stroke:none;font-family:Bitstream Vera Sans"
     x="107.49732"
     y="126.33155"
     id="text3643"><tspan
       sodipodi:role="line"
       id="tspan3645"
       x="107.49732"
       y="126.33155">Predator</tspan></text>
  <text
     xml:space="preserve"
     style="font-size:21.95161629px;font-style:normal;font-weight:normal;fill:#000000;fill-opacity:1;stroke:none;font-family:Bitstream Vera Sans"
     x="-0.39590573"
     y="144.86786"
     id="text3647"
     transform="scale(0.9978007,1.0022042)"><tspan
       sodipodi:role="line"
       id="tspan3649"
       x="-0.39590573"
       y="144.86786"
       style="font-size:19.95601463px">A sRNA bacterial target prediction webserver</tspan></text>
  <text
     xml:space="preserve"
     style="font-size:14px;font-style:normal;font-weight:normal;fill:#000000;fill-opacity:1;stroke:none;font-family:Utopia;-inkscape-font-specification:Utopia"
     x="349.7326"
     y="70.588234"
     id="text3659"><tspan
       sodipodi:role="line"
       id="tspan3661"
       x="349.7326"
       y="70.588234" /></text>
  <path
     sodipodi:type="arc"
     style="fill:#165900;fill-opacity:1;stroke:#000000;stroke-opacity:1"
     id="path4627"
     sodipodi:cx="380.40945"
     sodipodi:cy="66.374435"
     sodipodi:rx="20.596207"
     sodipodi:ry="32.507267"
     d="m 401.00566,66.374435 a 20.596207,32.507267 0 1 1 -41.19241,0 20.596207,32.507267 0 1 1 41.19241,0 z"
     transform="matrix(0.87082891,-0.1155478,0.13794081,0.72946046,43.952513,74.319742)" />
  <path
     sodipodi:type="arc"
     style="fill:#338000;fill-opacity:1;stroke:none"
     id="path4629"
     sodipodi:cx="379.66501"
     sodipodi:cy="46.026379"
     sodipodi:rx="14.39253"
     sodipodi:ry="15.136971"
     d="m 394.05754,46.026379 a 14.39253,15.136971 0 1 1 -28.78506,0 14.39253,15.136971 0 1 1 28.78506,0 z" />
  <path
     sodipodi:type="arc"
     style="fill:#552200;fill-opacity:1;stroke:#000000;stroke-opacity:1"
     id="path4631"
     sodipodi:cx="368.49841"
     sodipodi:cy="30.144964"
     sodipodi:rx="18.114737"
     sodipodi:ry="7.1962652"
     d="m 386.61315,30.144964 a 18.114737,7.1962652 0 1 1 -36.22947,0 18.114737,7.1962652 0 1 1 36.22947,0 z"
     transform="matrix(0.9891063,-0.14720301,0.14720301,0.9891063,8.510176,56.061348)" />
  <path
     sodipodi:type="arc"
     style="fill:#803300;fill-opacity:1;stroke:none"
     id="path4633"
     sodipodi:cx="370.73172"
     sodipodi:cy="24.933876"
     sodipodi:rx="6.9481182"
     sodipodi:ry="6.4518237"
     d="m 377.67984,24.933876 a 6.9481182,6.4518237 0 1 1 -13.89624,0 6.9481182,6.4518237 0 1 1 13.89624,0 z"
     transform="matrix(1.1380919,0,0,1.1762541,-47.392671,-3.2575369)" />
  <path
     sodipodi:type="arc"
     style="fill:#803300;fill-opacity:1;stroke:none"
     id="path4635"
     sodipodi:cx="381.65021"
     sodipodi:cy="23.196846"
     sodipodi:rx="6.4518237"
     sodipodi:ry="7.6925592"
     d="m 388.10203,23.196846 a 6.4518237,7.6925592 0 1 1 -12.90365,0 6.4518237,7.6925592 0 1 1 12.90365,0 z"
     transform="matrix(1.1762541,0,0,1,-68.90207,2.7718279)" />
  <path
     sodipodi:type="arc"
     style="fill:#803300;fill-opacity:1;stroke:#000000;stroke-opacity:1"
     id="path4637"
     sodipodi:cx="372.46875"
     sodipodi:cy="107.81499"
     sodipodi:rx="13.151794"
     sodipodi:ry="5.9555297"
     d="m 385.62054,107.81499 a 13.151794,5.9555297 0 1 1 -26.30358,0 13.151794,5.9555297 0 1 1 26.30358,0 z"
     transform="matrix(0.91478984,-0.40393012,0.86132504,0.71282478,-59.636746,177.44279)" />
  <path
     sodipodi:type="arc"
     style="fill:#803300;fill-opacity:1;stroke:#000000;stroke-opacity:1"
     id="path4639"
     sodipodi:cx="398.5242"
     sodipodi:cy="95.655792"
     sodipodi:rx="13.399941"
     sodipodi:ry="5.7073827"
     d="m 411.92414,95.655792 a 13.399941,5.7073827 0 1 1 -26.79988,0 13.399941,5.7073827 0 1 1 26.79988,0 z"
     transform="translate(7.4444122,1.9851765)" />
  <path
     sodipodi:type="arc"
     style="fill:#552200;fill-opacity:1;stroke:#000000;stroke-opacity:1"
     id="path4643"
     sodipodi:cx="361.05399"
     sodipodi:cy="72.329964"
     sodipodi:rx="16.12956"
     sodipodi:ry="7.1962652"
     d="m 377.18355,72.329964 a 16.12956,7.1962652 0 1 1 -32.25912,0 16.12956,7.1962652 0 1 1 32.25912,0 z"
     transform="matrix(0.20900502,-0.88810654,0.74779968,0.24821985,237.11954,378.73106)" />
  <rect
     style="fill:#2b0000;fill-opacity:1;stroke:none"
     id="rect4647"
     width="6.8198895"
     height="29.461264"
     x="404.51608"
     y="-231.40221"
     transform="matrix(0.73660126,0.67632727,-0.41200072,0.91118352,0,0)" />
  <path
     sodipodi:type="arc"
     style="fill:#2b0000;fill-opacity:1;stroke:#000000;stroke-opacity:1"
     id="path4654"
     sodipodi:cx="388.99896"
     sodipodi:cy="98.346786"
     sodipodi:rx="6.8566213"
     sodipodi:ry="9.9040079"
     d="m 395.85558,98.346786 a 6.8566213,9.9040079 0 1 1 -13.71324,0 6.8566213,9.9040079 0 1 1 13.71324,0 z"
     transform="matrix(0.84444445,0,0,0.87692307,59.139624,2.6573202)" />
  <path
     sodipodi:type="arc"
     style="fill:#552200;fill-opacity:1;stroke:none"
     id="path4645"
     sodipodi:cx="374.95023"
     sodipodi:cy="84.241028"
     sodipodi:rx="12.6555"
     sodipodi:ry="5.7073827"
     d="m 387.60573,84.241028 a 12.6555,5.7073827 0 1 1 -25.311,0 12.6555,5.7073827 0 1 1 25.311,0 z"
     transform="matrix(1,0,0,0.85355034,-1.0709605,15.448001)" />
  <rect
     style="fill:#1a1a1a;fill-opacity:1;stroke:#000000;stroke-opacity:1"
     id="rect4656"
     width="3.3521259"
     height="44.491852"
     x="380.52902"
     y="-135.78885"
     transform="matrix(0.90272826,0.43021122,-0.43021122,0.90272826,0,0)" />
  <path
     sodipodi:type="arc"
     style="fill:#ffffff;fill-opacity:1;stroke:none"
     id="path4658"
     sodipodi:cx="374.67624"
     sodipodi:cy="43.950928"
     sodipodi:rx="2.5902791"
     sodipodi:ry="3.0473871"
     d="m 377.26652,43.950928 a 2.5902791,3.0473871 0 1 1 -5.18056,0 2.5902791,3.0473871 0 1 1 5.18056,0 z"
     transform="translate(-1.3287201,0.34662264)" />
  <path
     sodipodi:type="arc"
     style="fill:#00ff00;fill-opacity:1;stroke:none"
     id="path4686"
     sodipodi:cx="372.85043"
     sodipodi:cy="46.504257"
     sodipodi:rx="0.94947624"
     sodipodi:ry="0.77990097"
     d="m 373.79991,46.504257 a 0.94947624,0.77990097 0 1 1 -1.89895,0 0.94947624,0.77990097 0 1 1 1.89895,0 z"
     transform="matrix(1.8277206,0,0,2.2039972,-308.36081,-56.929996)" />
  <path
     sodipodi:type="arc"
     style="fill:#000000;fill-opacity:1;stroke:none"
     id="path4688"
     sodipodi:cx="372.55933"
     sodipodi:cy="46.976559"
     sodipodi:rx="0.30178964"
     sodipodi:ry="0.28921509"
     d="m 372.86112,46.976559 a 0.30178964,0.28921509 0 1 1 -0.60358,0 0.30178964,0.28921509 0 1 1 0.60358,0 z"
     transform="matrix(2.970046,0,0,3.8330387,-733.69196,-134.14961)" />
  <path
     sodipodi:type="arc"
     style="fill:#ffffff;fill-opacity:1;stroke:none"
     id="path4658-3"
     sodipodi:cx="374.67624"
     sodipodi:cy="43.950928"
     sodipodi:rx="2.5902791"
     sodipodi:ry="3.0473871"
     d="m 377.26652,43.950928 a 2.5902791,3.0473871 0 1 1 -5.18056,0 2.5902791,3.0473871 0 1 1 5.18056,0 z"
     transform="translate(10.110334,-1.554709)" />
  <path
     sodipodi:type="arc"
     style="fill:#00ff00;fill-opacity:1;stroke:none"
     id="path4686-2"
     sodipodi:cx="372.85043"
     sodipodi:cy="46.504257"
     sodipodi:rx="0.94947624"
     sodipodi:ry="0.77990097"
     d="m 373.79991,46.504257 a 0.94947624,0.77990097 0 1 1 -1.89895,0 0.94947624,0.77990097 0 1 1 1.89895,0 z"
     transform="matrix(1.8277206,0,0,2.2039972,-296.92175,-58.831327)" />
  <path
     sodipodi:type="arc"
     style="fill:#000000;fill-opacity:1;stroke:none"
     id="path4688-6"
     sodipodi:cx="372.55933"
     sodipodi:cy="46.976559"
     sodipodi:rx="0.30178964"
     sodipodi:ry="0.28921509"
     d="m 372.86112,46.976559 a 0.30178964,0.28921509 0 1 1 -0.60358,0 0.30178964,0.28921509 0 1 1 0.60358,0 z"
     transform="matrix(2.970046,0,0,3.8330387,-722.2529,-136.05094)" />
  <path
     sodipodi:type="arc"
     style="fill:#552200;fill-opacity:1;stroke:none"
     id="path4720"
     sodipodi:cx="374.26785"
     sodipodi:cy="50.81831"
     sodipodi:rx="4.9750757"
     sodipodi:ry="1.385914"
     d="m 379.24293,50.81831 a 4.9750757,1.385914 0 1 1 -9.95015,0 4.9750757,1.385914 0 1 1 9.95015,0 z"
     transform="matrix(1.1328662,-0.49533846,0.49847251,1.1257436,-74.159621,180.32626)" />
  <path
     sodipodi:type="arc"
     style="fill:#552200;fill-opacity:1;stroke:none"
     id="path4720-5"
     sodipodi:cx="374.26785"
     sodipodi:cy="50.81831"
     sodipodi:rx="4.9750757"
     sodipodi:ry="1.385914"
     d="m 379.24293,50.81831 a 4.9750757,1.385914 0 1 1 -9.95015,0 4.9750757,1.385914 0 1 1 9.95015,0 z"
     transform="matrix(-1.1383122,-0.39629464,-0.50086878,0.90064909,837.29672,154.07744)" />
  <path
     sodipodi:type="arc"
     style="fill:#803300;fill-opacity:1;stroke:none"
     id="path4744"
     sodipodi:cx="376.79092"
     sodipodi:cy="28.785833"
     sodipodi:rx="7.7113676"
     sodipodi:ry="5.5081196"
     d="m 384.50229,28.785833 a 7.7113676,5.5081196 0 1 1 -15.42273,0 7.7113676,5.5081196 0 1 1 15.42273,0 z"
     transform="matrix(1.3271889,0,0,1.2387097,-123.17521,-7.7598638)" />
  <path
     sodipodi:type="arc"
     style="fill:#803300;fill-opacity:1;stroke:#000000;stroke-opacity:1"
     id="path4748"
     sodipodi:cx="390.36575"
     sodipodi:cy="81.166275"
     sodipodi:rx="1.1016239"
     sodipodi:ry="1.3148415"
     d="m 391.46738,81.166275 a 1.1016239,1.3148415 0 1 1 -2.20325,0 1.1016239,1.3148415 0 1 1 2.20325,0 z" />
  <path
     sodipodi:type="arc"
     style="fill:#338000;fill-opacity:1;stroke:none"
     id="path4750"
     sodipodi:cx="384.15842"
     sodipodi:cy="66.707924"
     sodipodi:rx="1.2376238"
     sodipodi:ry="12.252475"
     d="m 385.39604,66.707924 a 1.2376238,12.252475 0 1 1 -2.47525,0 1.2376238,12.252475 0 1 1 2.47525,0 z"
     transform="matrix(0.54365607,-0.83930809,0.83930809,0.54365607,115.35946,354.10664)" />
  <path
     sodipodi:type="arc"
     style="fill:#338000;fill-opacity:1;stroke:none"
     id="path4750-3"
     sodipodi:cx="384.15842"
     sodipodi:cy="66.707924"
     sodipodi:rx="1.2376238"
     sodipodi:ry="12.252475"
     d="m 385.39604,66.707924 a 1.2376238,12.252475 0 1 1 -2.47525,0 1.2376238,12.252475 0 1 1 2.47525,0 z"
     transform="matrix(-0.99340422,-0.29621214,-0.37366473,0.20165562,803.7473,174.97603)" />
  <path
     sodipodi:type="arc"
     style="fill:#000000;fill-opacity:1;stroke:#000000;stroke-width:3.54330707;stroke-miterlimit:4;stroke-opacity:1;stroke-dasharray:none"
     id="path4776"
     sodipodi:cx="373.67056"
     sodipodi:cy="41.451065"
     sodipodi:rx="2.5917583"
     sodipodi:ry="0.60982549"
     d="m 376.26232,41.451065 a 2.5917583,0.60982549 0 1 1 -5.18352,0 2.5917583,0.60982549 0 1 1 5.18352,0 z"
     transform="matrix(1.0131412,0.42392364,-0.25768709,0.61585006,5.7709292,-142.02699)" />
  <path
     sodipodi:type="arc"
     style="fill:#000000;fill-opacity:1;stroke:#000000;stroke-width:3.54330707;stroke-miterlimit:4;stroke-opacity:1;stroke-dasharray:none"
     id="path4778"
     sodipodi:cx="400.5029"
     sodipodi:cy="33.828247"
     sodipodi:rx="2.2868457"
     sodipodi:ry="0.91473824"
     d="m 402.78974,33.828247 a 2.2868457,0.91473824 0 1 1 -4.57369,0 2.2868457,0.91473824 0 1 1 4.57369,0 z"
     transform="matrix(1.0032962,-0.63197302,0.02811494,0.51105836,-19.04144,275.89778)" />
  <text
     xml:space="preserve"
     style="font-size:10px;font-style:normal;font-weight:normal;fill:#000000;fill-opacity:1;stroke:none;font-family:VL Gothic;-inkscape-font-specification:VL Gothic"
     x="393.0325"
     y="110.36134"
     id="text4780"><tspan
       sodipodi:role="line"
       id="tspan4782"
       x="393.0325"
       y="110.36134">UAGGA</tspan></text>
</svg>
