<?xml version="1.0" encoding="UTF-8" standalone="no"?>
<!-- Created with Inkscape (http://www.inkscape.org/) -->

<svg
   xmlns:dc="http://purl.org/dc/elements/1.1/"
   xmlns:cc="http://creativecommons.org/ns#"
   xmlns:rdf="http://www.w3.org/1999/02/22-rdf-syntax-ns#"
   xmlns:svg="http://www.w3.org/2000/svg"
   xmlns="http://www.w3.org/2000/svg"
   xmlns:sodipodi="http://sodipodi.sourceforge.net/DTD/sodipodi-0.dtd"
   xmlns:inkscape="http://www.inkscape.org/namespaces/inkscape"
   id="svg3627"
   version="1.1"
   inkscape:version="0.48.3.1 r9886"
   width="448.01215"
   height="93.723488"
   sodipodi:docname="banner_final.png">
  <metadata
     id="metadata3633">
    <rdf:RDF>
      <cc:Work
         rdf:about="">
        <dc:format>image/svg+xml</dc:format>
        <dc:type
           rdf:resource="http://purl.org/dc/dcmitype/StillImage" />
        <dc:title></dc:title>
      </cc:Work>
    </rdf:RDF>
  </metadata>
  <defs
     id="defs3631">
    <inkscape:perspective
       sodipodi:type="inkscape:persp3d"
       inkscape:vp_x="0 : 0.5 : 1"
       inkscape:vp_y="0 : 1000 : 0"
       inkscape:vp_z="1 : 0.5 : 1"
       inkscape:persp3d-origin="0.5 : 0.33333333 : 1"
       id="perspective3635" />
    <inkscape:perspective
       id="perspective4447"
       inkscape:persp3d-origin="0.5 : 0.33333333 : 1"
       inkscape:vp_z="1 : 0.5 : 1"
       inkscape:vp_y="0 : 1000 : 0"
       inkscape:vp_x="0 : 0.5 : 1"
       sodipodi:type="inkscape:persp3d" />
    <inkscape:perspective
       id="perspective4475"
       inkscape:persp3d-origin="0.5 : 0.33333333 : 1"
       inkscape:vp_z="1 : 0.5 : 1"
       inkscape:vp_y="0 : 1000 : 0"
       inkscape:vp_x="0 : 0.5 : 1"
       sodipodi:type="inkscape:persp3d" />
    <inkscape:perspective
       id="perspective4489"
       inkscape:persp3d-origin="0.5 : 0.33333333 : 1"
       inkscape:vp_z="1 : 0.5 : 1"
       inkscape:vp_y="0 : 1000 : 0"
       inkscape:vp_x="0 : 0.5 : 1"
       sodipodi:type="inkscape:persp3d" />
    <inkscape:perspective
       id="perspective4503"
       inkscape:persp3d-origin="0.5 : 0.33333333 : 1"
       inkscape:vp_z="1 : 0.5 : 1"
       inkscape:vp_y="0 : 1000 : 0"
       inkscape:vp_x="0 : 0.5 : 1"
       sodipodi:type="inkscape:persp3d" />
    <inkscape:perspective
       id="perspective4521"
       inkscape:persp3d-origin="0.5 : 0.33333333 : 1"
       inkscape:vp_z="1 : 0.5 : 1"
       inkscape:vp_y="0 : 1000 : 0"
       inkscape:vp_x="0 : 0.5 : 1"
       sodipodi:type="inkscape:persp3d" />
    <inkscape:perspective
       id="perspective4539"
       inkscape:persp3d-origin="0.5 : 0.33333333 : 1"
       inkscape:vp_z="1 : 0.5 : 1"
       inkscape:vp_y="0 : 1000 : 0"
       inkscape:vp_x="0 : 0.5 : 1"
       sodipodi:type="inkscape:persp3d" />
    <inkscape:perspective
       id="perspective4553"
       inkscape:persp3d-origin="0.5 : 0.33333333 : 1"
       inkscape:vp_z="1 : 0.5 : 1"
       inkscape:vp_y="0 : 1000 : 0"
       inkscape:vp_x="0 : 0.5 : 1"
       sodipodi:type="inkscape:persp3d" />
    <inkscape:perspective
       id="perspective4567"
       inkscape:persp3d-origin="0.5 : 0.33333333 : 1"
       inkscape:vp_z="1 : 0.5 : 1"
       inkscape:vp_y="0 : 1000 : 0"
       inkscape:vp_x="0 : 0.5 : 1"
       sodipodi:type="inkscape:persp3d" />
    <inkscape:perspective
       id="perspective4597"
       inkscape:persp3d-origin="0.5 : 0.33333333 : 1"
       inkscape:vp_z="1 : 0.5 : 1"
       inkscape:vp_y="0 : 1000 : 0"
       inkscape:vp_x="0 : 0.5 : 1"
       sodipodi:type="inkscape:persp3d" />
    <inkscape:perspective
       id="perspective4670"
       inkscape:persp3d-origin="0.5 : 0.33333333 : 1"
       inkscape:vp_z="1 : 0.5 : 1"
       inkscape:vp_y="0 : 1000 : 0"
       inkscape:vp_x="0 : 0.5 : 1"
       sodipodi:type="inkscape:persp3d" />
    <inkscape:perspective
       id="perspective4700"
       inkscape:persp3d-origin="0.5 : 0.33333333 : 1"
       inkscape:vp_z="1 : 0.5 : 1"
       inkscape:vp_y="0 : 1000 : 0"
       inkscape:vp_x="0 : 0.5 : 1"
       sodipodi:type="inkscape:persp3d" />
    <inkscape:perspective
       id="perspective4730"
       inkscape:persp3d-origin="0.5 : 0.33333333 : 1"
       inkscape:vp_z="1 : 0.5 : 1"
       inkscape:vp_y="0 : 1000 : 0"
       inkscape:vp_x="0 : 0.5 : 1"
       sodipodi:type="inkscape:persp3d" />
    <inkscape:perspective
       id="perspective4760"
       inkscape:persp3d-origin="0.5 : 0.33333333 : 1"
       inkscape:vp_z="1 : 0.5 : 1"
       inkscape:vp_y="0 : 1000 : 0"
       inkscape:vp_x="0 : 0.5 : 1"
       sodipodi:type="inkscape:persp3d" />
    <inkscape:perspective
       id="perspective2942"
       inkscape:persp3d-origin="0.5 : 0.33333333 : 1"
       inkscape:vp_z="1 : 0.5 : 1"
       inkscape:vp_y="0 : 1000 : 0"
       inkscape:vp_x="0 : 0.5 : 1"
       sodipodi:type="inkscape:persp3d" />
    <inkscape:perspective
       id="perspective3890"
       inkscape:persp3d-origin="0.5 : 0.33333333 : 1"
       inkscape:vp_z="1 : 0.5 : 1"
       inkscape:vp_y="0 : 1000 : 0"
       inkscape:vp_x="0 : 0.5 : 1"
       sodipodi:type="inkscape:persp3d" />
    <inkscape:perspective
       id="perspective3912"
       inkscape:persp3d-origin="0.5 : 0.33333333 : 1"
       inkscape:vp_z="1 : 0.5 : 1"
       inkscape:vp_y="0 : 1000 : 0"
       inkscape:vp_x="0 : 0.5 : 1"
       sodipodi:type="inkscape:persp3d" />
    <inkscape:perspective
       id="perspective3934"
       inkscape:persp3d-origin="0.5 : 0.33333333 : 1"
       inkscape:vp_z="1 : 0.5 : 1"
       inkscape:vp_y="0 : 1000 : 0"
       inkscape:vp_x="0 : 0.5 : 1"
       sodipodi:type="inkscape:persp3d" />
    <inkscape:perspective
       id="perspective3969"
       inkscape:persp3d-origin="0.5 : 0.33333333 : 1"
       inkscape:vp_z="1 : 0.5 : 1"
       inkscape:vp_y="0 : 1000 : 0"
       inkscape:vp_x="0 : 0.5 : 1"
       sodipodi:type="inkscape:persp3d" />
    <inkscape:perspective
       id="perspective3969-8"
       inkscape:persp3d-origin="0.5 : 0.33333333 : 1"
       inkscape:vp_z="1 : 0.5 : 1"
       inkscape:vp_y="0 : 1000 : 0"
       inkscape:vp_x="0 : 0.5 : 1"
       sodipodi:type="inkscape:persp3d" />
    <inkscape:perspective
       id="perspective4004"
       inkscape:persp3d-origin="0.5 : 0.33333333 : 1"
       inkscape:vp_z="1 : 0.5 : 1"
       inkscape:vp_y="0 : 1000 : 0"
       inkscape:vp_x="0 : 0.5 : 1"
       sodipodi:type="inkscape:persp3d" />
    <inkscape:perspective
       id="perspective4028"
       inkscape:persp3d-origin="0.5 : 0.33333333 : 1"
       inkscape:vp_z="1 : 0.5 : 1"
       inkscape:vp_y="0 : 1000 : 0"
       inkscape:vp_x="0 : 0.5 : 1"
       sodipodi:type="inkscape:persp3d" />
    <inkscape:perspective
       id="perspective4050"
       inkscape:persp3d-origin="0.5 : 0.33333333 : 1"
       inkscape:vp_z="1 : 0.5 : 1"
       inkscape:vp_y="0 : 1000 : 0"
       inkscape:vp_x="0 : 0.5 : 1"
       sodipodi:type="inkscape:persp3d" />
    <inkscape:perspective
       id="perspective4072"
       inkscape:persp3d-origin="0.5 : 0.33333333 : 1"
       inkscape:vp_z="1 : 0.5 : 1"
       inkscape:vp_y="0 : 1000 : 0"
       inkscape:vp_x="0 : 0.5 : 1"
       sodipodi:type="inkscape:persp3d" />
    <inkscape:perspective
       id="perspective4094"
       inkscape:persp3d-origin="0.5 : 0.33333333 : 1"
       inkscape:vp_z="1 : 0.5 : 1"
       inkscape:vp_y="0 : 1000 : 0"
       inkscape:vp_x="0 : 0.5 : 1"
       sodipodi:type="inkscape:persp3d" />
    <inkscape:perspective
       id="perspective4116"
       inkscape:persp3d-origin="0.5 : 0.33333333 : 1"
       inkscape:vp_z="1 : 0.5 : 1"
       inkscape:vp_y="0 : 1000 : 0"
       inkscape:vp_x="0 : 0.5 : 1"
       sodipodi:type="inkscape:persp3d" />
    <inkscape:perspective
       id="perspective4138"
       inkscape:persp3d-origin="0.5 : 0.33333333 : 1"
       inkscape:vp_z="1 : 0.5 : 1"
       inkscape:vp_y="0 : 1000 : 0"
       inkscape:vp_x="0 : 0.5 : 1"
       sodipodi:type="inkscape:persp3d" />
    <inkscape:perspective
       id="perspective4160"
       inkscape:persp3d-origin="0.5 : 0.33333333 : 1"
       inkscape:vp_z="1 : 0.5 : 1"
       inkscape:vp_y="0 : 1000 : 0"
       inkscape:vp_x="0 : 0.5 : 1"
       sodipodi:type="inkscape:persp3d" />
    <inkscape:perspective
       id="perspective4182"
       inkscape:persp3d-origin="0.5 : 0.33333333 : 1"
       inkscape:vp_z="1 : 0.5 : 1"
       inkscape:vp_y="0 : 1000 : 0"
       inkscape:vp_x="0 : 0.5 : 1"
       sodipodi:type="inkscape:persp3d" />
    <inkscape:perspective
       id="perspective4204"
       inkscape:persp3d-origin="0.5 : 0.33333333 : 1"
       inkscape:vp_z="1 : 0.5 : 1"
       inkscape:vp_y="0 : 1000 : 0"
       inkscape:vp_x="0 : 0.5 : 1"
       sodipodi:type="inkscape:persp3d" />
    <inkscape:perspective
       id="perspective4226"
       inkscape:persp3d-origin="0.5 : 0.33333333 : 1"
       inkscape:vp_z="1 : 0.5 : 1"
       inkscape:vp_y="0 : 1000 : 0"
       inkscape:vp_x="0 : 0.5 : 1"
       sodipodi:type="inkscape:persp3d" />
    <inkscape:perspective
       id="perspective4248"
       inkscape:persp3d-origin="0.5 : 0.33333333 : 1"
       inkscape:vp_z="1 : 0.5 : 1"
       inkscape:vp_y="0 : 1000 : 0"
       inkscape:vp_x="0 : 0.5 : 1"
       sodipodi:type="inkscape:persp3d" />
    <inkscape:perspective
       id="perspective3727"
       inkscape:persp3d-origin="0.5 : 0.33333333 : 1"
       inkscape:vp_z="1 : 0.5 : 1"
       inkscape:vp_y="0 : 1000 : 0"
       inkscape:vp_x="0 : 0.5 : 1"
       sodipodi:type="inkscape:persp3d" />
    <inkscape:perspective
       id="perspective3749"
       inkscape:persp3d-origin="0.5 : 0.33333333 : 1"
       inkscape:vp_z="1 : 0.5 : 1"
       inkscape:vp_y="0 : 1000 : 0"
       inkscape:vp_x="0 : 0.5 : 1"
       sodipodi:type="inkscape:persp3d" />
    <inkscape:perspective
       id="perspective3771"
       inkscape:persp3d-origin="0.5 : 0.33333333 : 1"
       inkscape:vp_z="1 : 0.5 : 1"
       inkscape:vp_y="0 : 1000 : 0"
       inkscape:vp_x="0 : 0.5 : 1"
       sodipodi:type="inkscape:persp3d" />
    <inkscape:perspective
       id="perspective3793"
       inkscape:persp3d-origin="0.5 : 0.33333333 : 1"
       inkscape:vp_z="1 : 0.5 : 1"
       inkscape:vp_y="0 : 1000 : 0"
       inkscape:vp_x="0 : 0.5 : 1"
       sodipodi:type="inkscape:persp3d" />
    <inkscape:perspective
       id="perspective3815"
       inkscape:persp3d-origin="0.5 : 0.33333333 : 1"
       inkscape:vp_z="1 : 0.5 : 1"
       inkscape:vp_y="0 : 1000 : 0"
       inkscape:vp_x="0 : 0.5 : 1"
       sodipodi:type="inkscape:persp3d" />
    <inkscape:perspective
       id="perspective3837"
       inkscape:persp3d-origin="0.5 : 0.33333333 : 1"
       inkscape:vp_z="1 : 0.5 : 1"
       inkscape:vp_y="0 : 1000 : 0"
       inkscape:vp_x="0 : 0.5 : 1"
       sodipodi:type="inkscape:persp3d" />
  </defs>
  <sodipodi:namedview
     pagecolor="#ffffff"
     bordercolor="#666666"
     borderopacity="1"
     objecttolerance="10"
     gridtolerance="10"
     guidetolerance="10"
     inkscape:pageopacity="0"
     inkscape:pageshadow="2"
     inkscape:window-width="1366"
     inkscape:window-height="710"
     id="namedview3629"
     showgrid="false"
     inkscape:zoom="1.1575153"
     inkscape:cx="292.83013"
     inkscape:cy="36.310969"
     inkscape:window-x="0"
     inkscape:window-y="26"
     inkscape:window-maximized="1"
     inkscape:current-layer="svg3627"
     fit-margin-top="0"
     fit-margin-left="0"
     fit-margin-right="0"
     fit-margin-bottom="0" />
  <text
     xml:space="preserve"
     style="font-size:48px;font-style:italic;font-weight:bold;fill:#000000;fill-opacity:1;stroke:none;font-family:Sans;-inkscape-font-specification:Sans Bold Italic"
     x="137.09328"
     y="44.114044"
     id="text3639"><tspan
       sodipodi:role="line"
       id="tspan3641"
       x="137.09328"
       y="44.114044">RNA</tspan></text>
  <text
     xml:space="preserve"
     style="font-size:48px;font-style:normal;font-weight:normal;fill:#000000;fill-opacity:1;stroke:none;font-family:Bitstream Vera Sans"
     x="243.77776"
     y="43.707619"
     id="text3643"><tspan
       sodipodi:role="line"
       id="tspan3645"
       x="243.77776"
       y="43.707619">Predator</tspan></text>
  <text
     xml:space="preserve"
     style="font-size:21.95161629px;font-style:normal;font-weight:normal;fill:#000000;fill-opacity:1;stroke:none;font-family:Bitstream Vera Sans"
     x="140.19373"
     y="64.421326"
     id="text3647"
     transform="scale(0.99780065,1.0022042)"><tspan
       sodipodi:role="line"
       id="tspan3649"
       x="140.19373"
       y="64.421326"
       style="font-size:19.95601463px">A bacterial sRNA </tspan><tspan
       sodipodi:role="line"
       x="140.19373"
       y="89.366341"
       style="font-size:19.95601463px"
       id="tspan3156">target prediction webserver</tspan></text>
  <text
     xml:space="preserve"
     style="font-size:14px;font-style:normal;font-weight:normal;fill:#000000;fill-opacity:1;stroke:none;font-family:Utopia;-inkscape-font-specification:Utopia"
     x="500.01306"
     y="35.964314"
     id="text3659"><tspan
       sodipodi:role="line"
       id="tspan3661"
       x="500.01306"
       y="35.964314" /></text>
  <path
     sodipodi:type="arc"
     style="fill:#a40000;fill-opacity:1;stroke:#000000;stroke-width:0.11161427;stroke-miterlimit:4;stroke-opacity:1;stroke-dasharray:none"
     id="path5187-3"
     sodipodi:cx="430.1636"
     sodipodi:cy="10.420764"
     sodipodi:rx="2.9914019"
     sodipodi:ry="5.3064871"
     d="m 433.15501,10.420764 a 2.9914019,5.3064871 0 1 1 -5.98281,0 2.9914019,5.3064871 0 1 1 5.98281,0 z"
     transform="matrix(3.5687364,-1.0841948,1.2879903,3.3702298,-1478.4952,460.5583)" />
  <text
     xml:space="preserve"
     style="font-size:7.36090899px;font-style:normal;font-weight:normal;fill:#000000;fill-opacity:1;stroke:none;font-family:Bitstream Vera Sans"
     x="63.183231"
     y="86.139389"
     id="text3006"
     transform="scale(1.0044806,0.99553937)"><tspan
       sodipodi:role="line"
       id="tspan3008"
       x="63.183231"
       y="86.139389">A</tspan></text>
  <path
     sodipodi:type="arc"
     style="opacity:0.97000002;fill:#ffff00;fill-opacity:1;stroke:#000000;stroke-width:0.08422506;stroke-miterlimit:4;stroke-opacity:1;stroke-dasharray:none"
     id="path5218-6"
     sodipodi:cx="430.44974"
     sodipodi:cy="26.496298"
     sodipodi:rx="0.26012191"
     sodipodi:ry="0.57226819"
     d="m 430.70986,26.496298 a 0.26012191,0.57226819 0 1 1 -0.52024,0 0.26012191,0.57226819 0 1 1 0.52024,0 z"
     transform="matrix(3.6472154,3.3019118,-2.4379843,4.2564249,-1443.9172,-1451.0259)" />
  <path
     sodipodi:type="arc"
     style="opacity:0.97000002;fill:#ffff00;fill-opacity:1;stroke:#000000;stroke-width:0.08422507;stroke-miterlimit:4;stroke-opacity:1;stroke-dasharray:none"
     id="path5218-26-9"
     sodipodi:cx="430.44974"
     sodipodi:cy="26.496298"
     sodipodi:rx="0.26012191"
     sodipodi:ry="0.57226819"
     d="m 430.70986,26.496298 a 0.26012191,0.57226819 0 1 1 -0.52024,0 0.26012191,0.57226819 0 1 1 0.52024,0 z"
     transform="matrix(4.3828502,0.14509256,0.19122704,5.3850457,-1827.736,-120.76699)" />
  <path
     sodipodi:type="arc"
     style="opacity:0.97000002;fill:#ffff00;fill-opacity:1;stroke:#000000;stroke-width:0.08422507;stroke-miterlimit:4;stroke-opacity:1;stroke-dasharray:none"
     id="path5218-2-2"
     sodipodi:cx="430.44974"
     sodipodi:cy="26.496298"
     sodipodi:rx="0.26012191"
     sodipodi:ry="0.57226819"
     d="m 430.70986,26.496298 a 0.26012191,0.57226819 0 1 1 -0.52024,0 0.26012191,0.57226819 0 1 1 0.52024,0 z"
     transform="matrix(3.9952758,-1.8738407,1.812103,5.0505931,-1702.0504,755.16482)"
     inkscape:transform-center-x="-1.7320997"
     inkscape:transform-center-y="0.64765206" />
  <path
     sodipodi:type="arc"
     style="opacity:0.97000002;fill:#ffff00;fill-opacity:1;stroke:#000000;stroke-width:0.0852046;stroke-miterlimit:4;stroke-opacity:1;stroke-dasharray:none"
     id="path5216-8"
     sodipodi:cx="430.42374"
     sodipodi:cy="25.351761"
     sodipodi:rx="0.54625601"
     sodipodi:ry="0.98846328"
     d="m 430.96999,25.351761 a 0.54625601,0.98846328 0 1 1 -1.09251,0 0.54625601,0.98846328 0 1 1 1.09251,0 z"
     transform="matrix(4.3774542,0.19764368,0.19607698,5.271088,-1825.9798,-140.22908)" />
  <path
     sodipodi:type="arc"
     style="fill:#a40000;fill-opacity:1;stroke:#000000;stroke-width:0.08212693;stroke-miterlimit:4;stroke-opacity:1;stroke-dasharray:none"
     id="path5163-6"
     sodipodi:cx="428.88901"
     sodipodi:cy="22.464409"
     sodipodi:rx="0.98846328"
     sodipodi:ry="2.1069875"
     d="m 429.87747,22.464409 a 0.98846328,2.1069875 0 1 1 -1.97693,0 0.98846328,2.1069875 0 1 1 1.97693,0 z"
     transform="matrix(5.2379493,-0.21328804,0.5491921,4.7111709,-2196.5273,51.969866)" />
  <path
     sodipodi:type="arc"
     style="fill:#630000;fill-opacity:1;stroke:#000000;stroke-width:0.2175559;stroke-miterlimit:4;stroke-opacity:1;stroke-dasharray:none"
     id="path5084"
     sodipodi:cx="422.55341"
     sodipodi:cy="24.405756"
     sodipodi:rx="11.917363"
     sodipodi:ry="8.7604456"
     d="m 434.47077,24.405756 a 11.917363,8.7604456 0 1 1 -23.83473,0 11.917363,8.7604456 0 1 1 23.83473,0 z"
     transform="matrix(2.2114356,0.96782889,-0.83036867,1.9373149,-849.26665,-408.62491)" />
  <path
     sodipodi:type="arc"
     style="fill:#552200;fill-opacity:1;stroke:#000000;stroke-width:0.5;stroke-miterlimit:4;stroke-opacity:1;stroke-dasharray:none"
     id="path3866"
     sodipodi:cx="415.82324"
     sodipodi:cy="47.227802"
     sodipodi:rx="8.8915272"
     sodipodi:ry="11.201015"
     d="m 424.71477,47.227802 a 8.8915272,11.201015 0 1 1 -17.78305,0 8.8915272,11.201015 0 1 1 17.78305,0 z"
     transform="matrix(0.8215434,0,0,0.81423064,-242.15259,-6.5058493)" />
  <path
     sodipodi:type="arc"
     style="fill:#740000;fill-opacity:1;fill-rule:evenodd;stroke:#000000;stroke-width:0.06607662;stroke-miterlimit:4;stroke-opacity:1;stroke-dasharray:none"
     id="path3600"
     sodipodi:cx="443.6709"
     sodipodi:cy="18.544304"
     sodipodi:rx="3.4810126"
     sodipodi:ry="2.8481014"
     d="m 447.15191,18.544304 a 3.4810126,2.8481014 0 1 1 -6.96202,0 3.4810126,2.8481014 0 1 1 6.96202,0 z"
     transform="matrix(6.1367089,1.6414864,-1.5842354,5.8177065,-2596.2883,-784.57535)" />
  <path
     sodipodi:type="arc"
     style="fill:#ffffff;fill-opacity:1;stroke:#000000;stroke-width:0.166747;stroke-miterlimit:4;stroke-opacity:1;stroke-dasharray:none"
     id="path3602"
     sodipodi:cx="440.50632"
     sodipodi:cy="31.044304"
     sodipodi:rx="1.8987342"
     sodipodi:ry="1.7405063"
     d="m 442.40505,31.044304 a 1.8987342,1.7405063 0 1 1 -3.79747,0 1.8987342,1.7405063 0 1 1 3.79747,0 z"
     transform="matrix(2.5146062,2.4203662,-1.320752,1.1205844,-969.53523,-1048.2846)"
     inkscape:transform-center-x="4.790405"
     inkscape:transform-center-y="-5.4759295" />
  <path
     sodipodi:type="arc"
     style="fill:#63ff00;fill-opacity:1;stroke:none"
     id="path5052"
     sodipodi:cx="426.03183"
     sodipodi:cy="19.515596"
     sodipodi:rx="0.35259575"
     sodipodi:ry="0.51286656"
     d="m 426.38443,19.515596 a 0.35259575,0.51286656 0 1 1 -0.7052,0 0.35259575,0.51286656 0 1 1 0.7052,0 z"
     transform="matrix(5.3367428,-2.0031656,4.2076183,3.9397413,-2257.3877,831.04654)" />
  <path
     transform="matrix(3.9708115,1.0621382,-0.96665214,3.5497869,-1634.1188,-472.89806)"
     sodipodi:type="arc"
     style="fill:#000000;fill-opacity:1;stroke:none"
     id="path5044"
     sodipodi:cx="440.75488"
     sodipodi:cy="17.039326"
     sodipodi:rx="0.32637057"
     sodipodi:ry="0.29201579"
     d="m 441.08125,17.039326 a 0.32637057,0.29201579 0 1 1 -0.65274,0 0.32637057,0.29201579 0 1 1 0.65274,0 z" />
  <path
     sodipodi:type="arc"
     style="fill:#ffff00;fill-opacity:1;stroke:#000000;stroke-width:0.10516004;stroke-miterlimit:4;stroke-opacity:1;stroke-dasharray:none"
     id="path5048"
     sodipodi:cx="422.70142"
     sodipodi:cy="18.842953"
     sodipodi:rx="1.3741919"
     sodipodi:ry="1.5459659"
     d="m 424.07561,18.842953 a 1.3741919,1.5459659 0 1 1 -2.74839,0 1.3741919,1.5459659 0 1 1 2.74839,0 z"
     transform="matrix(3.9708115,1.0621382,-0.96665214,3.5497869,-1553.6881,-446.54364)" />
  <path
     sodipodi:type="arc"
     style="fill:#ffff00;fill-opacity:1;stroke:#000000;stroke-width:0.10516004;stroke-miterlimit:4;stroke-opacity:1;stroke-dasharray:none"
     id="path5046"
     sodipodi:cx="443.33148"
     sodipodi:cy="19.46134"
     sodipodi:rx="1.7349173"
     sodipodi:ry="1.5459659"
     d="m 445.0664,19.46134 a 1.7349173,1.5459659 0 1 1 -3.46984,0 1.7349173,1.5459659 0 1 1 3.46984,0 z"
     transform="matrix(3.9708115,1.0621382,-0.96665214,3.5497869,-1631.0951,-473.79011)" />
  <path
     sodipodi:type="arc"
     style="fill:#ffff00;fill-opacity:1;stroke:none"
     id="path3848"
     sodipodi:cx="421.53922"
     sodipodi:cy="87.355148"
     sodipodi:rx="2.4826992"
     sodipodi:ry="3.8683918"
     d="m 424.02191,87.355148 a 2.4826992,3.8683918 0 1 1 -4.96539,0 2.4826992,3.8683918 0 1 1 4.96539,0 z"
     transform="matrix(0.97438869,0,0,1.1058953,-306.01367,-28.223353)" />
  <path
     sodipodi:type="arc"
     style="fill:#ffffff;fill-opacity:1;stroke:#000000;stroke-width:0.08507866;stroke-miterlimit:4;stroke-opacity:1;stroke-dasharray:none"
     id="path5050"
     sodipodi:cx="427.0473"
     sodipodi:cy="18.361986"
     sodipodi:rx="0.77298295"
     sodipodi:ry="0.75580555"
     d="m 427.82029,18.361986 a 0.77298295,0.75580555 0 1 1 -1.54597,0 0.77298295,0.75580555 0 1 1 1.54597,0 z"
     transform="matrix(4.8532139,1.2981689,-1.2083151,4.4372338,-1940.0147,-565.92667)" />
  <path
     sodipodi:type="arc"
     style="fill:#ffffff;fill-opacity:1;stroke:#000000;stroke-width:0.20523433;stroke-miterlimit:4;stroke-opacity:1;stroke-dasharray:none"
     id="path3602-3"
     sodipodi:cx="440.50632"
     sodipodi:cy="31.044304"
     sodipodi:rx="1.8987342"
     sodipodi:ry="1.7405063"
     d="m 442.40505,31.044304 a 1.8987342,1.7405063 0 1 1 -3.79747,0 1.8987342,1.7405063 0 1 1 3.79747,0 z"
     transform="matrix(0.09202529,2.5714743,1.559572,0.43627785,24.369879,-1094.0591)"
     inkscape:transform-center-x="0.75692301"
     inkscape:transform-center-y="-5.5449079" />
  <path
     sodipodi:type="arc"
     style="fill:#63ff00;fill-opacity:1;stroke:none"
     id="path5052-8"
     sodipodi:cx="426.03183"
     sodipodi:cy="19.515596"
     sodipodi:rx="0.35259575"
     sodipodi:ry="0.51286656"
     d="m 426.38443,19.515596 a 0.35259575,0.51286656 0 1 1 -0.7052,0 0.35259575,0.51286656 0 1 1 0.7052,0 z"
     transform="matrix(-4.6044741,0.12334297,0.0799101,4.2204542,2073.9234,-80.949505)" />
  <path
     transform="matrix(-1.7099902,1.9987717,2.9764337,2.358571,816.87164,-865.92058)"
     sodipodi:type="arc"
     style="fill:#000000;fill-opacity:1;stroke:none"
     id="path5044-2"
     sodipodi:cx="440.75488"
     sodipodi:cy="17.039326"
     sodipodi:rx="0.32637057"
     sodipodi:ry="0.29201579"
     d="m 441.08125,17.039326 a 0.32637057,0.29201579 0 1 1 -0.65274,0 0.32637057,0.29201579 0 1 1 0.65274,0 z" />
  <rect
     style="opacity:0.97000002;fill:#000000;fill-opacity:1;stroke:none"
     id="rect2862"
     width="14.262955"
     height="12.115262"
     x="18.359192"
     y="-5.0046234"
     transform="matrix(0.9621088,0.27266583,-0.24892739,0.96852215,0,0)" />
  <rect
     style="fill:#6f0000;fill-opacity:1;stroke:#000000;stroke-width:0.49096856;stroke-miterlimit:4;stroke-opacity:1;stroke-dasharray:none"
     id="rect5086"
     width="21.866386"
     height="42.18626"
     x="4.1061282"
     y="17.660572"
     transform="matrix(0.82362512,-0.5671346,0.53007686,0.8479496,0,0)" />
  <path
     sodipodi:type="arc"
     style="fill:#ffffff;fill-opacity:1;stroke:#000000;stroke-width:0.09772107;stroke-miterlimit:4;stroke-opacity:1;stroke-dasharray:none"
     id="path5114"
     sodipodi:cx="421.88254"
     sodipodi:cy="21.209377"
     sodipodi:rx="3.8277624"
     sodipodi:ry="2.95961"
     d="m 425.7103,21.209377 a 3.8277624,2.95961 0 1 1 -7.65552,0 3.8277624,2.95961 0 1 1 7.65552,0 z"
     transform="matrix(4.8651854,5.0879216,-2.6020526,2.4621006,-1975.7603,-2158.0785)" />
  <path
     sodipodi:type="arc"
     style="fill:#ff0001;fill-opacity:1;stroke:#000000;stroke-width:0.10516004;stroke-miterlimit:4;stroke-opacity:1;stroke-dasharray:none"
     id="path5137"
     sodipodi:cx="444.0816"
     sodipodi:cy="19.961018"
     sodipodi:rx="0.6286177"
     sodipodi:ry="0.41907847"
     d="m 444.71022,19.961018 a 0.6286177,0.41907847 0 1 1 -1.25723,0 0.6286177,0.41907847 0 1 1 1.25723,0 z"
     transform="matrix(2.5191115,3.0322867,-3.2180487,2.1294042,-944.66811,-1320.2724)" />
  <path
     sodipodi:type="arc"
     style="fill:#ffffff;fill-opacity:1;stroke:#000000;stroke-width:0.10052718;stroke-miterlimit:4;stroke-opacity:1;stroke-dasharray:none"
     id="path5139"
     sodipodi:cx="444.26849"
     sodipodi:cy="19.541939"
     sodipodi:rx="0.35111979"
     sodipodi:ry="0.36244625"
     d="m 444.61961,19.541939 a 0.35111979,0.36244625 0 1 1 -0.70224,0 0.35111979,0.36244625 0 1 1 0.70224,0 z"
     transform="matrix(3.4306496,0.91765217,-1.2243556,4.4961382,-1392.338,-426.43966)" />
  <path
     sodipodi:type="arc"
     style="fill:#ffffff;fill-opacity:1;stroke:#000000;stroke-width:0.09663053;stroke-miterlimit:4;stroke-opacity:1;stroke-dasharray:none"
     id="path5139-5"
     sodipodi:cx="444.26849"
     sodipodi:cy="19.541939"
     sodipodi:rx="0.35111979"
     sodipodi:ry="0.36244625"
     d="m 444.61961,19.541939 a 0.35111979,0.36244625 0 1 1 -0.70224,0 0.35111979,0.36244625 0 1 1 0.70224,0 z"
     transform="matrix(4.0130145,1.073427,-1.1327953,4.1599063,-1648.4822,-488.87939)" />
  <path
     sodipodi:type="arc"
     style="opacity:0.97000002;fill:#ffff00;fill-opacity:1;stroke:#000000;stroke-width:0.08422507;stroke-miterlimit:4;stroke-opacity:1;stroke-dasharray:none"
     id="path5218-26"
     sodipodi:cx="430.44974"
     sodipodi:cy="26.496298"
     sodipodi:rx="0.26012191"
     sodipodi:ry="0.57226819"
     d="m 430.70986,26.496298 a 0.26012191,0.57226819 0 1 1 -0.52024,0 0.26012191,0.57226819 0 1 1 0.52024,0 z"
     transform="matrix(4.3828502,0.14509256,0.19122704,5.3850457,-1841.2168,-123.26529)" />
  <path
     sodipodi:type="arc"
     style="opacity:0.97000002;fill:#ffff00;fill-opacity:1;stroke:#000000;stroke-width:0.08422506;stroke-miterlimit:4;stroke-opacity:1;stroke-dasharray:none"
     id="path5218"
     sodipodi:cx="430.44974"
     sodipodi:cy="26.496298"
     sodipodi:rx="0.26012191"
     sodipodi:ry="0.57226819"
     d="m 430.70986,26.496298 a 0.26012191,0.57226819 0 1 1 -0.52024,0 0.26012191,0.57226819 0 1 1 0.52024,0 z"
     transform="matrix(3.6472154,3.3019118,-2.4379843,4.2564249,-1457.398,-1453.5239)" />
  <path
     sodipodi:type="arc"
     style="opacity:0.97000002;fill:#ffff00;fill-opacity:1;stroke:#000000;stroke-width:0.08422507;stroke-miterlimit:4;stroke-opacity:1;stroke-dasharray:none"
     id="path5218-2"
     sodipodi:cx="430.44974"
     sodipodi:cy="26.496298"
     sodipodi:rx="0.26012191"
     sodipodi:ry="0.57226819"
     d="m 430.70986,26.496298 a 0.26012191,0.57226819 0 1 1 -0.52024,0 0.26012191,0.57226819 0 1 1 0.52024,0 z"
     transform="matrix(3.9952758,-1.8738407,1.812103,5.0505931,-1715.5312,752.6666)"
     inkscape:transform-center-x="-1.7321086"
     inkscape:transform-center-y="0.64764156" />
  <path
     sodipodi:type="arc"
     style="opacity:0.97000002;fill:#ffff00;fill-opacity:1;stroke:#000000;stroke-width:0.08422507;stroke-miterlimit:4;stroke-opacity:1;stroke-dasharray:none"
     id="path5216"
     sodipodi:cx="430.42374"
     sodipodi:cy="25.351761"
     sodipodi:rx="0.54625601"
     sodipodi:ry="0.98846328"
     d="m 430.96999,25.351761 a 0.54625601,0.98846328 0 1 1 -1.09251,0 0.54625601,0.98846328 0 1 1 1.09251,0 z"
     transform="matrix(4.3835678,0.16625727,0.17399879,5.3844339,-1841.544,-132.03221)" />
  <path
     sodipodi:type="arc"
     style="fill:#a40000;fill-opacity:1;stroke:#000000;stroke-width:0.07244662;stroke-miterlimit:4;stroke-opacity:1;stroke-dasharray:none"
     id="path5163"
     sodipodi:cx="428.88901"
     sodipodi:cy="22.464409"
     sodipodi:rx="0.98846328"
     sodipodi:ry="2.1069875"
     d="m 429.87747,22.464409 a 0.98846328,2.1069875 0 1 1 -1.97693,0 0.98846328,2.1069875 0 1 1 1.97693,0 z"
     transform="matrix(5.7300585,-0.376906,0.48486182,5.5287192,-2419.0006,100.53682)" />
  <path
     sodipodi:type="arc"
     style="fill:#a40000;fill-opacity:1;stroke:#000000;stroke-width:0.10423382;stroke-miterlimit:4;stroke-opacity:1;stroke-dasharray:none"
     id="path5187"
     sodipodi:cx="430.1636"
     sodipodi:cy="10.420764"
     sodipodi:rx="2.9914019"
     sodipodi:ry="5.3064871"
     d="m 433.15501,10.420764 a 2.9914019,5.3064871 0 1 1 -5.98281,0 2.9914019,5.3064871 0 1 1 5.98281,0 z"
     transform="matrix(3.8612918,-1.1187781,1.4233158,3.5738877,-1620.5049,474.98716)" />
  <rect
     style="fill:#a40000;fill-opacity:1;stroke:#000000;stroke-width:0.41330382;stroke-miterlimit:4;stroke-opacity:1;stroke-dasharray:none"
     id="rect5189"
     width="9.0433655"
     height="11.108984"
     x="47.930077"
     y="-23.414587"
     transform="matrix(0.78920045,0.61413569,-0.440317,0.89784238,0,0)" />
  <rect
     style="fill:#a40000;fill-opacity:1;stroke:#000000;stroke-width:0.41816261;stroke-miterlimit:4;stroke-opacity:1;stroke-dasharray:none"
     id="rect5189-9"
     width="6.8169322"
     height="8.9499502"
     x="64.694397"
     y="-34.067513"
     transform="matrix(0.79097628,0.61184681,-0.35407252,0.93521797,0,0)" />
  <text
     xml:space="preserve"
     style="font-size:9.81454659px;font-style:normal;font-weight:normal;fill:#000000;fill-opacity:1;stroke:none;font-family:Bitstream Vera Sans"
     x="42.330822"
     y="89.125679"
     id="text2994"
     transform="scale(1.0044806,0.99553937)"><tspan
       sodipodi:role="line"
       id="tspan2996"
       x="42.330822"
       y="89.125679">A</tspan></text>
  <text
     xml:space="preserve"
     style="font-size:8.99666691px;font-style:normal;font-weight:normal;fill:#000000;fill-opacity:1;stroke:none;font-family:Bitstream Vera Sans"
     x="50.542431"
     y="88.140259"
     id="text2998"
     transform="scale(1.0044806,0.99553937)"><tspan
       sodipodi:role="line"
       id="tspan3000"
       x="50.542431"
       y="88.140259">A</tspan></text>
  <path
     sodipodi:type="arc"
     style="opacity:0.97000002;fill:#ffffff;fill-opacity:1;stroke:#000000;stroke-width:0.04725861;stroke-miterlimit:4;stroke-opacity:1;stroke-dasharray:none"
     id="path5287"
     sodipodi:cx="429.70245"
     sodipodi:cy="26.407906"
     sodipodi:rx="0.14590332"
     sodipodi:ry="0.24031135"
     d="m 429.84836,26.407906 a 0.14590332,0.24031135 0 1 1 -0.29181,0 0.14590332,0.24031135 0 1 1 0.29181,0 z"
     transform="matrix(7.9702714,1.217875,-2.6715794,5.6043865,-3307.9209,-591.32384)" />
  <path
     sodipodi:type="arc"
     style="opacity:0.97000002;fill:#ffffff;fill-opacity:1;stroke:#000000;stroke-width:0.06272391;stroke-miterlimit:4;stroke-opacity:1;stroke-dasharray:none"
     id="path5287-1"
     sodipodi:cx="429.70245"
     sodipodi:cy="26.407906"
     sodipodi:rx="0.14590332"
     sodipodi:ry="0.24031135"
     d="m 429.84836,26.407906 a 0.14590332,0.24031135 0 1 1 -0.29181,0 0.14590332,0.24031135 0 1 1 0.29181,0 z"
     transform="matrix(3.9479059,2.0981716,-0.88028927,6.4228811,-1623.6234,-988.49198)" />
  <path
     sodipodi:type="arc"
     style="opacity:0.97000002;fill:#ffffff;fill-opacity:1;stroke:#000000;stroke-width:0.07775736;stroke-miterlimit:4;stroke-opacity:1;stroke-dasharray:none"
     id="path5287-1-1"
     sodipodi:cx="429.70245"
     sodipodi:cy="26.407906"
     sodipodi:rx="0.14590332"
     sodipodi:ry="0.24031135"
     d="m 429.84836,26.407906 a 0.14590332,0.24031135 0 1 1 -0.29181,0 0.14590332,0.24031135 0 1 1 0.29181,0 z"
     transform="matrix(2.7858675,-1.2233111,1.2471851,5.8064509,-1177.8496,454.06014)" />
  <text
     xml:space="preserve"
     style="font-size:8.17878914px;font-style:normal;font-weight:normal;fill:#000000;fill-opacity:1;stroke:none;font-family:Bitstream Vera Sans"
     x="56.516308"
     y="91.178299"
     id="text3002"
     transform="scale(1.0044806,0.99553937)"><tspan
       sodipodi:role="line"
       id="tspan3004"
       x="56.516308"
       y="91.178299">G</tspan></text>
  <path
     sodipodi:type="arc"
     style="opacity:0.97000002;fill:#ffffff;fill-opacity:1;stroke:#000000;stroke-width:0.0563742;stroke-miterlimit:4;stroke-opacity:1;stroke-dasharray:none"
     id="path5287-0"
     sodipodi:cx="429.70245"
     sodipodi:cy="26.407906"
     sodipodi:rx="0.14590332"
     sodipodi:ry="0.24031135"
     d="m 429.84836,26.407906 a 0.14590332,0.24031135 0 1 1 -0.29181,0 0.14590332,0.24031135 0 1 1 0.29181,0 z"
     transform="matrix(10.164206,1.5232047,-3.4069712,7.0094442,-4218.1571,-756.70472)" />
  <path
     sodipodi:type="arc"
     style="opacity:0.97000002;fill:#ffffff;fill-opacity:1;stroke:#000000;stroke-width:0.0613209;stroke-miterlimit:4;stroke-opacity:1;stroke-dasharray:none"
     id="path5287-1-3"
     sodipodi:cx="429.70245"
     sodipodi:cy="26.407906"
     sodipodi:rx="0.14590332"
     sodipodi:ry="0.24031135"
     d="m 429.84836,26.407906 a 0.14590332,0.24031135 0 1 1 -0.29181,0 0.14590332,0.24031135 0 1 1 0.29181,0 z"
     transform="matrix(3.9184405,2.2117895,-0.87371912,6.7706862,-1597.6116,-1044.2768)" />
  <path
     sodipodi:type="arc"
     style="opacity:0.97000002;fill:#ffffff;fill-opacity:1;stroke:#000000;stroke-width:0.0647103;stroke-miterlimit:4;stroke-opacity:1;stroke-dasharray:none"
     id="path5287-1-1-1"
     sodipodi:cx="429.70245"
     sodipodi:cy="26.407906"
     sodipodi:rx="0.14590332"
     sodipodi:ry="0.24031135"
     d="m 429.84836,26.407906 a 0.14590332,0.24031135 0 1 1 -0.29181,0 0.14590332,0.24031135 0 1 1 0.29181,0 z"
     transform="matrix(2.9985521,-1.6410504,1.3424004,7.7892518,-1258.3129,583.33459)" />
  <rect
     style="opacity:0.97000002;fill:#000000;fill-opacity:1;stroke:none"
     id="rect2864"
     width="4.4953361"
     height="4.0235786"
     x="18.667322"
     y="0.22213918"
     transform="matrix(0.9660375,0.25840193,-0.26274507,0.96486529,0,0)" />
  <rect
     style="opacity:0.97000002;fill:#000000;fill-opacity:1;stroke:none"
     id="rect2864-9"
     width="4.4953361"
     height="4.0235786"
     x="22.000025"
     y="-3.8879197"
     transform="matrix(0.9660375,0.25840193,-0.26274507,0.96486529,0,0)" />
  <text
     xml:space="preserve"
     style="font-size:22.90060806px;font-style:normal;font-weight:normal;fill:#000000;fill-opacity:1;stroke:none;font-family:Bitstream Vera Sans"
     x="20.980583"
     y="75.00164"
     id="text2978"
     transform="scale(1.0044806,0.99553937)"><tspan
       sodipodi:role="line"
       id="tspan2980"
       x="20.980583"
       y="75.00164"
       style="font-size:16.35757828px">A</tspan></text>
  <text
     xml:space="preserve"
     style="font-size:13.08606148px;font-style:normal;font-weight:normal;fill:#000000;fill-opacity:1;stroke:none;font-family:Bitstream Vera Sans"
     x="25.907551"
     y="84.198692"
     id="text2986"
     transform="scale(1.0044806,0.99553937)"><tspan
       sodipodi:role="line"
       id="tspan2988"
       x="25.907551"
       y="84.198692">U</tspan></text>
  <text
     xml:space="preserve"
     style="font-size:11.45030403px;font-style:normal;font-weight:normal;fill:#000000;fill-opacity:1;stroke:none;font-family:Bitstream Vera Sans"
     x="33.133778"
     y="90.767982"
     id="text2990"
     transform="scale(1.0044806,0.99553937)"><tspan
       sodipodi:role="line"
       id="tspan2992"
       x="33.133778"
       y="90.767982">G</tspan></text>
  <text
     xml:space="preserve"
     style="font-size:6.54303074px;font-style:normal;font-weight:normal;fill:#000000;fill-opacity:1;stroke:none;font-family:Bitstream Vera Sans"
     x="68.286789"
     y="82.070175"
     id="text3010"
     transform="scale(1.0044806,0.99553937)"><tspan
       sodipodi:role="line"
       id="tspan3012"
       x="68.286789"
       y="82.070175">A</tspan></text>
  <text
     xml:space="preserve"
     style="font-size:4.90727329px;font-style:normal;font-weight:normal;fill:#000000;fill-opacity:1;stroke:none;font-family:Bitstream Vera Sans"
     x="73.840912"
     y="82.970169"
     id="text3014"
     transform="scale(1.0044806,0.99553937)"><tspan
       sodipodi:role="line"
       id="tspan3016"
       x="73.840912"
       y="82.970169">A</tspan></text>
  <text
     xml:space="preserve"
     style="font-size:3.27151537px;font-style:normal;font-weight:normal;fill:#000000;fill-opacity:1;stroke:none;font-family:Bitstream Vera Sans"
     x="79.199654"
     y="83.99781"
     id="text3018"
     transform="scale(1.0044806,0.99553937)"><tspan
       sodipodi:role="line"
       id="tspan3020"
       x="79.199654"
       y="83.99781">U</tspan></text>
  <text
     xml:space="preserve"
     style="font-size:18px;font-style:normal;font-weight:normal;fill:#000000;fill-opacity:1;stroke:none;font-family:Bitstream Vera Sans"
     x="560.18146"
     y="78.742409"
     id="text3022"><tspan
       sodipodi:role="line"
       id="tspan3024"
       x="560.18146"
       y="78.742409" /></text>
  <path
     sodipodi:type="arc"
     style="fill:#ffffff;fill-opacity:1;stroke:#000000;stroke-width:0.46918198;stroke-miterlimit:4;stroke-opacity:1;stroke-dasharray:none"
     id="path3868"
     sodipodi:cx="407.10492"
     sodipodi:cy="38.509487"
     sodipodi:rx="6.6397767"
     sodipodi:ry="6.4088283"
     d="m 413.7447,38.509487 a 6.6397767,6.4088283 0 1 1 -13.27956,0 6.6397767,6.4088283 0 1 1 13.27956,0 z"
     transform="matrix(0.95013289,0,0,0.79955981,-294.59683,-1.9919273)" />
  <path
     sodipodi:type="arc"
     style="fill:#ffffff;fill-opacity:1;stroke:none"
     id="path3870"
     sodipodi:cx="399.71457"
     sodipodi:cy="25.172195"
     sodipodi:rx="5.715982"
     sodipodi:ry="3.9261289"
     d="m 405.43055,25.172195 a 5.715982,3.9261289 0 1 1 -11.43196,0 5.715982,3.9261289 0 1 1 11.43196,0 z"
     transform="matrix(0.96261654,0,0,1.7003052,-294.13024,-15.459057)" />
  <path
     sodipodi:type="arc"
     style="fill:#ffffff;fill-opacity:1;stroke:none"
     id="path3872"
     sodipodi:cx="291.45734"
     sodipodi:cy="36.546421"
     sodipodi:rx="11.201015"
     sodipodi:ry="19.803856"
     d="m 302.65835,36.546421 a 11.201015,19.803856 0 1 1 -22.40203,0 11.201015,19.803856 0 1 1 22.40203,0 z"
     transform="matrix(0.9543881,-0.52472575,0.48401254,1.0173264,-281.49404,154.23861)" />
  <path
     sodipodi:type="arc"
     style="fill:#ffffff;fill-opacity:1;stroke:none"
     id="path3876"
     sodipodi:cx="327.42761"
     sodipodi:cy="68.590561"
     sodipodi:rx="14.722983"
     sodipodi:ry="9.2379503"
     d="m 342.1506,68.590561 a 14.722983,9.2379503 0 1 1 -29.44597,0 14.722983,9.2379503 0 1 1 29.44597,0 z"
     transform="matrix(0.66598682,0.55725276,-0.58334061,0.6362029,-145.94227,-172.4297)" />
  <path
     sodipodi:type="arc"
     style="fill:#6d0000;fill-opacity:1;stroke:none"
     id="path3878"
     sodipodi:cx="282.91223"
     sodipodi:cy="33.7173"
     sodipodi:rx="5.4272957"
     sodipodi:ry="4.3880262"
     d="m 288.33953,33.7173 a 5.4272957,4.3880262 0 1 1 -10.85459,0 5.4272957,4.3880262 0 1 1 10.85459,0 z"
     transform="matrix(0.86524253,0,0,1.1570646,-201.81687,4.5001804)" />
  <path
     sodipodi:type="arc"
     style="fill:#a40000;fill-opacity:1;stroke:none"
     id="path5187-2"
     sodipodi:cx="430.1636"
     sodipodi:cy="10.420764"
     sodipodi:rx="2.9914019"
     sodipodi:ry="5.3064871"
     d="m 433.15501,10.420764 a 2.9914019,5.3064871 0 1 1 -5.98281,0 2.9914019,5.3064871 0 1 1 5.98281,0 z"
     transform="matrix(2.8317114,-0.69391966,1.0438008,2.216696,-1175.8548,299.21484)" />
  <path
     sodipodi:type="arc"
     style="fill:#a40000;fill-opacity:1;stroke:none"
     id="path5187-2-3"
     sodipodi:cx="430.1636"
     sodipodi:cy="10.420764"
     sodipodi:rx="2.9914019"
     sodipodi:ry="5.3064871"
     d="m 433.15501,10.420764 a 2.9914019,5.3064871 0 1 1 -5.98281,0 2.9914019,5.3064871 0 1 1 5.98281,0 z"
     transform="matrix(2.8317114,-0.69391966,1.0438008,2.216696,-1174.669,299.35588)" />
  <path
     sodipodi:type="arc"
     style="fill:#a40000;fill-opacity:1;stroke:none"
     id="path5187-2-3-8"
     sodipodi:cx="430.1636"
     sodipodi:cy="10.420764"
     sodipodi:rx="2.9914019"
     sodipodi:ry="5.3064871"
     d="m 433.15501,10.420764 a 2.9914019,5.3064871 0 1 1 -5.98281,0 2.9914019,5.3064871 0 1 1 5.98281,0 z"
     transform="matrix(1.3356108,-0.8630926,0.84169882,1.3826073,-514.48024,375.83655)" />
  <path
     sodipodi:type="arc"
     style="fill:#a40000;fill-opacity:1;stroke:none"
     id="path5187-2-3-8-7"
     sodipodi:cx="430.1636"
     sodipodi:cy="10.420764"
     sodipodi:rx="2.9914019"
     sodipodi:ry="5.3064871"
     d="m 433.15501,10.420764 a 2.9914019,5.3064871 0 1 1 -5.98281,0 2.9914019,5.3064871 0 1 1 5.98281,0 z"
     transform="matrix(-0.11212267,-0.68448681,0.8352299,0.31859581,103.36896,308.54328)" />
  <path
     sodipodi:type="arc"
     style="fill:#a40000;fill-opacity:1;stroke:none"
     id="path5187-2-3-8-7-9"
     sodipodi:cx="430.1636"
     sodipodi:cy="10.420764"
     sodipodi:rx="2.9914019"
     sodipodi:ry="5.3064871"
     d="m 433.15501,10.420764 a 2.9914019,5.3064871 0 1 1 -5.98281,0 2.9914019,5.3064871 0 1 1 5.98281,0 z"
     transform="matrix(-0.45380957,-0.19970431,0.51073586,-0.4258718,252.35613,103.67542)" />
  <path
     sodipodi:type="arc"
     style="fill:#ffffff;fill-opacity:1;stroke:none"
     id="path4018"
     sodipodi:cx="343.41058"
     sodipodi:cy="97.15316"
     sodipodi:rx="2.4874623"
     sodipodi:ry="2.1119962"
     d="m 345.89805,97.15316 a 2.4874623,2.1119962 0 1 1 -4.97493,0 2.4874623,2.1119962 0 1 1 4.97493,0 z"
     transform="matrix(0.8215434,0,0,0.81423064,-236.68961,-0.17000071)" />
  <path
     sodipodi:type="arc"
     style="fill:#ffffff;fill-opacity:1;stroke:none"
     id="path4018-1"
     sodipodi:cx="343.41058"
     sodipodi:cy="97.15316"
     sodipodi:rx="2.4874623"
     sodipodi:ry="2.1119962"
     d="m 345.89805,97.15316 a 2.4874623,2.1119962 0 1 1 -4.97493,0 2.4874623,2.1119962 0 1 1 4.97493,0 z"
     transform="matrix(0.28844201,0.48848175,-0.3168312,0.44471206,-22.654772,-130.88672)" />
  <path
     sodipodi:type="arc"
     style="fill:#ffffff;fill-opacity:1;stroke:none"
     id="path4018-15"
     sodipodi:cx="343.41058"
     sodipodi:cy="97.15316"
     sodipodi:rx="2.4874623"
     sodipodi:ry="2.1119962"
     d="m 345.89805,97.15316 a 2.4874623,2.1119962 0 1 1 -4.97493,0 2.4874623,2.1119962 0 1 1 4.97493,0 z"
     transform="matrix(0.24474948,0,0,0.81816801,-34.792452,3.7198439)" />
  <path
     sodipodi:type="arc"
     style="fill:#ffffff;fill-opacity:1;stroke:none"
     id="path4018-15-0"
     sodipodi:cx="343.41058"
     sodipodi:cy="97.15316"
     sodipodi:rx="2.4874623"
     sodipodi:ry="2.1119962"
     d="m 345.89805,97.15316 a 2.4874623,2.1119962 0 1 1 -4.97493,0 2.4874623,2.1119962 0 1 1 4.97493,0 z"
     transform="matrix(0.19235241,0.04451459,-0.1145392,0.48616447,-5.62895,19.773527)" />
  <path
     sodipodi:type="arc"
     style="fill:#ffffff;fill-opacity:1;stroke:none"
     id="path4018-15-0-9"
     sodipodi:cx="343.41058"
     sodipodi:cy="97.15316"
     sodipodi:rx="2.4874623"
     sodipodi:ry="2.1119962"
     d="m 345.89805,97.15316 a 2.4874623,2.1119962 0 1 1 -4.97493,0 2.4874623,2.1119962 0 1 1 4.97493,0 z"
     transform="matrix(0.16340438,-0.03070049,0.05499796,0.59319822,-9.2558839,35.304303)" />
  <path
     sodipodi:type="arc"
     style="fill:#ffffff;fill-opacity:1;stroke:none"
     id="path5287-0-6"
     sodipodi:cx="429.70245"
     sodipodi:cy="26.407906"
     sodipodi:rx="0.14590332"
     sodipodi:ry="0.24031135"
     d="m 429.84836,26.407906 a 0.14590332,0.24031135 0 1 1 -0.29181,0 0.14590332,0.24031135 0 1 1 0.29181,0 z"
     transform="matrix(6.8409632,5.4009809,-5.4591263,4.2197168,-2736.1645,-2350.7958)" />
  <path
     sodipodi:type="arc"
     style="fill:#ffffff;fill-opacity:1;stroke:none"
     id="path5287-0-6-1"
     sodipodi:cx="429.70245"
     sodipodi:cy="26.407906"
     sodipodi:rx="0.14590332"
     sodipodi:ry="0.24031135"
     d="m 429.84836,26.407906 a 0.14590332,0.24031135 0 1 1 -0.29181,0 0.14590332,0.24031135 0 1 1 0.29181,0 z"
     transform="matrix(6.4656973,6.9791031,-5.4514669,4.4428901,-2576.0454,-3032.6004)" />
  <path
     sodipodi:type="arc"
     style="fill:#ffffff;fill-opacity:1;stroke:none"
     id="path5287-0-6-1-1"
     sodipodi:cx="429.70245"
     sodipodi:cy="26.407906"
     sodipodi:rx="0.14590332"
     sodipodi:ry="0.24031135"
     d="m 429.84836,26.407906 a 0.14590332,0.24031135 0 1 1 -0.29181,0 0.14590332,0.24031135 0 1 1 0.29181,0 z"
     transform="matrix(3.2638711,-6.9740869,3.121527,3.268978,-1425.8526,2994.0452)" />
  <path
     sodipodi:type="arc"
     style="fill:#ffffff;fill-opacity:1;stroke:none"
     id="path5287-0-6-1-1-3"
     sodipodi:cx="429.70245"
     sodipodi:cy="26.407906"
     sodipodi:rx="0.14590332"
     sodipodi:ry="0.24031135"
     d="m 429.84836,26.407906 a 0.14590332,0.24031135 0 1 1 -0.29181,0 0.14590332,0.24031135 0 1 1 0.29181,0 z"
     transform="matrix(2.2161002,-8.5981159,2.1194515,4.0302126,-945.42638,3673.5631)" />
  <path
     sodipodi:type="arc"
     style="fill:#ffffff;fill-opacity:1;stroke:none"
     id="path5287-0-6-1-1-3-0"
     sodipodi:cx="429.70245"
     sodipodi:cy="26.407906"
     sodipodi:rx="0.14590332"
     sodipodi:ry="0.24031135"
     d="m 429.84836,26.407906 a 0.14590332,0.24031135 0 1 1 -0.29181,0 0.14590332,0.24031135 0 1 1 0.29181,0 z"
     transform="matrix(0.44112069,-10.763489,1.8771678,5.0451921,-173.51276,4576.1278)" />
  <path
     sodipodi:type="arc"
     style="fill:#ffffff;fill-opacity:1;stroke:none"
     id="path5287-0-6-1-1-3-0-1"
     sodipodi:cx="429.70245"
     sodipodi:cy="26.407906"
     sodipodi:rx="0.14590332"
     sodipodi:ry="0.24031135"
     d="m 429.84836,26.407906 a 0.14590332,0.24031135 0 1 1 -0.29181,0 0.14590332,0.24031135 0 1 1 0.29181,0 z"
     transform="matrix(0.44112069,-5.8914006,1.8771678,2.7614883,-173.41208,2544.0351)" />
  <path
     sodipodi:type="arc"
     style="fill:#ffffff;fill-opacity:1;stroke:none"
     id="path5287-0-6-1-1-3-0-1-4"
     sodipodi:cx="429.70245"
     sodipodi:cy="26.407906"
     sodipodi:rx="0.14590332"
     sodipodi:ry="0.24031135"
     d="m 429.84836,26.407906 a 0.14590332,0.24031135 0 1 1 -0.29181,0 0.14590332,0.24031135 0 1 1 0.29181,0 z"
     transform="matrix(-3.6066803,-4.7034183,3.2518541,0.83665105,1530.1389,2084.8029)" />
  <path
     sodipodi:type="arc"
     style="fill:#ffffff;fill-opacity:1;stroke:none"
     id="path3717"
     sodipodi:cx="425.07822"
     sodipodi:cy="89.581993"
     sodipodi:rx="1.1134663"
     sodipodi:ry="1.2214892"
     d="m 426.19168,89.581993 a 1.1134663,1.2214892 0 1 1 -2.22693,0 1.1134663,1.2214892 0 1 1 2.22693,0 z"
     transform="matrix(0.92576904,0,0,1.3792069,-285.81376,-53.76469)" />
  <path
     sodipodi:type="arc"
     style="fill:#ffffff;fill-opacity:1;stroke:none"
     id="path3717-4"
     sodipodi:cx="425.07822"
     sodipodi:cy="89.581993"
     sodipodi:rx="1.1134663"
     sodipodi:ry="1.2214892"
     d="m 426.19168,89.581993 a 1.1134663,1.2214892 0 1 1 -2.22693,0 1.1134663,1.2214892 0 1 1 2.22693,0 z"
     transform="matrix(2.1335604,0,0,1.3792069,-794.12688,-50.415616)" />
  <path
     sodipodi:type="arc"
     style="fill:#ffffff;fill-opacity:1;stroke:none"
     id="path3717-3"
     sodipodi:cx="425.07822"
     sodipodi:cy="89.581993"
     sodipodi:rx="1.1134663"
     sodipodi:ry="1.2214892"
     d="m 426.19168,89.581993 a 1.1134663,1.2214892 0 1 1 -2.22693,0 1.1134663,1.2214892 0 1 1 2.22693,0 z"
     transform="matrix(0.55785441,-0.47538484,0.70686487,0.81479017,-192.23846,200.0093)" />
  <path
     sodipodi:type="arc"
     style="fill:#ffffff;fill-opacity:1;stroke:none"
     id="path3717-3-3"
     sodipodi:cx="425.07822"
     sodipodi:cy="89.581993"
     sodipodi:rx="1.1134663"
     sodipodi:ry="1.2214892"
     d="m 426.19168,89.581993 a 1.1134663,1.2214892 0 1 1 -2.22693,0 1.1134663,1.2214892 0 1 1 2.22693,0 z"
     transform="matrix(1.0405128,0.17133384,-0.37068729,1.044477,-296.42584,-95.993488)" />
  <path
     sodipodi:type="arc"
     style="fill:#ffffff;fill-opacity:1;stroke:none"
     id="path3717-3-3-6"
     sodipodi:cx="425.07822"
     sodipodi:cy="89.581993"
     sodipodi:rx="1.1134663"
     sodipodi:ry="1.2214892"
     d="m 426.19168,89.581993 a 1.1134663,1.2214892 0 1 1 -2.22693,0 1.1134663,1.2214892 0 1 1 2.22693,0 z"
     transform="matrix(0.94802715,-0.36656018,0.27111033,1.2260018,-314.95386,114.93754)" />
  <path
     sodipodi:type="arc"
     style="fill:#ffffff;fill-opacity:1;stroke:none"
     id="path3717-3-3-6-3"
     sodipodi:cx="425.07822"
     sodipodi:cy="89.581993"
     sodipodi:rx="1.1134663"
     sodipodi:ry="1.2214892"
     d="m 426.19168,89.581993 a 1.1134663,1.2214892 0 1 1 -2.22693,0 1.1134663,1.2214892 0 1 1 2.22693,0 z"
     transform="matrix(1.135171,-0.38253429,0.32462845,1.279429,-399.01218,117.36792)" />
  <path
     sodipodi:type="arc"
     style="fill:#ffffff;fill-opacity:1;stroke:none"
     id="path3717-3-3-6-3-7"
     sodipodi:cx="425.07822"
     sodipodi:cy="89.581993"
     sodipodi:rx="1.1134663"
     sodipodi:ry="1.2214892"
     d="m 426.19168,89.581993 a 1.1134663,1.2214892 0 1 1 -2.22693,0 1.1134663,1.2214892 0 1 1 2.22693,0 z"
     transform="matrix(0.52110514,-0.1269488,0.14902208,0.42459456,-122.97176,83.556262)" />
</svg>
