<?xml version="1.0" encoding="UTF-8" standalone="no"?>
<!-- Created with Inkscape (http://www.inkscape.org/) -->

<svg
   xmlns:dc="http://purl.org/dc/elements/1.1/"
   xmlns:cc="http://creativecommons.org/ns#"
   xmlns:rdf="http://www.w3.org/1999/02/22-rdf-syntax-ns#"
   xmlns:svg="http://www.w3.org/2000/svg"
   xmlns="http://www.w3.org/2000/svg"
   xmlns:sodipodi="http://sodipodi.sourceforge.net/DTD/sodipodi-0.dtd"
   xmlns:inkscape="http://www.inkscape.org/namespaces/inkscape"
   width="468px"
   height="60px"
   id="svg2816"
   version="1.1"
   inkscape:version="0.47 r22583"
   sodipodi:docname="logo_new.svg">
  <defs
     id="defs2818">
    <inkscape:perspective
       sodipodi:type="inkscape:persp3d"
       inkscape:vp_x="0 : 30 : 1"
       inkscape:vp_y="0 : 1000 : 0"
       inkscape:vp_z="468 : 30 : 1"
       inkscape:persp3d-origin="234 : 20 : 1"
       id="perspective2824" />
    <inkscape:perspective
       id="perspective5062"
       inkscape:persp3d-origin="0.5 : 0.33333333 : 1"
       inkscape:vp_z="1 : 0.5 : 1"
       inkscape:vp_y="0 : 1000 : 0"
       inkscape:vp_x="0 : 0.5 : 1"
       sodipodi:type="inkscape:persp3d" />
    <inkscape:perspective
       id="perspective5098"
       inkscape:persp3d-origin="0.5 : 0.33333333 : 1"
       inkscape:vp_z="1 : 0.5 : 1"
       inkscape:vp_y="0 : 1000 : 0"
       inkscape:vp_x="0 : 0.5 : 1"
       sodipodi:type="inkscape:persp3d" />
    <inkscape:perspective
       id="perspective5149"
       inkscape:persp3d-origin="0.5 : 0.33333333 : 1"
       inkscape:vp_z="1 : 0.5 : 1"
       inkscape:vp_y="0 : 1000 : 0"
       inkscape:vp_x="0 : 0.5 : 1"
       sodipodi:type="inkscape:persp3d" />
    <inkscape:perspective
       id="perspective5173"
       inkscape:persp3d-origin="0.5 : 0.33333333 : 1"
       inkscape:vp_z="1 : 0.5 : 1"
       inkscape:vp_y="0 : 1000 : 0"
       inkscape:vp_x="0 : 0.5 : 1"
       sodipodi:type="inkscape:persp3d" />
    <inkscape:perspective
       id="perspective5199"
       inkscape:persp3d-origin="0.5 : 0.33333333 : 1"
       inkscape:vp_z="1 : 0.5 : 1"
       inkscape:vp_y="0 : 1000 : 0"
       inkscape:vp_x="0 : 0.5 : 1"
       sodipodi:type="inkscape:persp3d" />
    <inkscape:perspective
       id="perspective5264"
       inkscape:persp3d-origin="0.5 : 0.33333333 : 1"
       inkscape:vp_z="1 : 0.5 : 1"
       inkscape:vp_y="0 : 1000 : 0"
       inkscape:vp_x="0 : 0.5 : 1"
       sodipodi:type="inkscape:persp3d" />
    <inkscape:perspective
       id="perspective5264-0"
       inkscape:persp3d-origin="0.5 : 0.33333333 : 1"
       inkscape:vp_z="1 : 0.5 : 1"
       inkscape:vp_y="0 : 1000 : 0"
       inkscape:vp_x="0 : 0.5 : 1"
       sodipodi:type="inkscape:persp3d" />
    <inkscape:perspective
       id="perspective5297"
       inkscape:persp3d-origin="0.5 : 0.33333333 : 1"
       inkscape:vp_z="1 : 0.5 : 1"
       inkscape:vp_y="0 : 1000 : 0"
       inkscape:vp_x="0 : 0.5 : 1"
       sodipodi:type="inkscape:persp3d" />
    <inkscape:perspective
       id="perspective5319"
       inkscape:persp3d-origin="0.5 : 0.33333333 : 1"
       inkscape:vp_z="1 : 0.5 : 1"
       inkscape:vp_y="0 : 1000 : 0"
       inkscape:vp_x="0 : 0.5 : 1"
       sodipodi:type="inkscape:persp3d" />
    <inkscape:perspective
       id="perspective5380"
       inkscape:persp3d-origin="0.5 : 0.33333333 : 1"
       inkscape:vp_z="1 : 0.5 : 1"
       inkscape:vp_y="0 : 1000 : 0"
       inkscape:vp_x="0 : 0.5 : 1"
       sodipodi:type="inkscape:persp3d" />
    <inkscape:perspective
       id="perspective2874"
       inkscape:persp3d-origin="0.5 : 0.33333333 : 1"
       inkscape:vp_z="1 : 0.5 : 1"
       inkscape:vp_y="0 : 1000 : 0"
       inkscape:vp_x="0 : 0.5 : 1"
       sodipodi:type="inkscape:persp3d" />
    <inkscape:perspective
       id="perspective2898"
       inkscape:persp3d-origin="0.5 : 0.33333333 : 1"
       inkscape:vp_z="1 : 0.5 : 1"
       inkscape:vp_y="0 : 1000 : 0"
       inkscape:vp_x="0 : 0.5 : 1"
       sodipodi:type="inkscape:persp3d" />
    <inkscape:perspective
       id="perspective2920"
       inkscape:persp3d-origin="0.5 : 0.33333333 : 1"
       inkscape:vp_z="1 : 0.5 : 1"
       inkscape:vp_y="0 : 1000 : 0"
       inkscape:vp_x="0 : 0.5 : 1"
       sodipodi:type="inkscape:persp3d" />
  </defs>
  <sodipodi:namedview
     id="base"
     pagecolor="#ffffff"
     bordercolor="#666666"
     borderopacity="1.0"
     inkscape:pageopacity="0.0"
     inkscape:pageshadow="2"
     inkscape:zoom="19.201819"
     inkscape:cx="424.39599"
     inkscape:cy="42.51474"
     inkscape:document-units="px"
     inkscape:current-layer="layer1"
     showgrid="false"
     inkscape:window-width="1280"
     inkscape:window-height="725"
     inkscape:window-x="0"
     inkscape:window-y="24"
     inkscape:window-maximized="1" />
  <metadata
     id="metadata2821">
    <rdf:RDF>
      <cc:Work
         rdf:about="">
        <dc:format>image/svg+xml</dc:format>
        <dc:type
           rdf:resource="http://purl.org/dc/dcmitype/StillImage" />
        <dc:title />
      </cc:Work>
    </rdf:RDF>
  </metadata>
  <g
     id="layer1"
     inkscape:label="Layer 1"
     inkscape:groupmode="layer">
    <rect
       style="opacity:0.97000002;fill:#550000;fill-opacity:1;stroke:none"
       id="rect2888-7"
       width="3.5060356"
       height="4.8458114"
       x="-416.14618"
       y="262.06821"
       transform="matrix(-0.79153148,-0.61112839,0.41500742,-0.90981803,0,0)" />
    <rect
       style="opacity:0.97000002;fill:#803300;fill-opacity:1;stroke:none"
       id="rect2888-7-1"
       width="3.5060356"
       height="4.8458114"
       x="-417.11084"
       y="262.48718"
       transform="matrix(-0.79153148,-0.61112839,0.41500742,-0.90981803,0,0)" />
    <rect
       style="fill:#ffffff;fill-opacity:1;stroke:none"
       id="rect5088-6"
       width="9.8632021"
       height="5.1203871"
       x="257.63443"
       y="-279.64926"
       transform="matrix(0.76388177,0.64535622,-0.81368034,0.58131256,0,0)"
       inkscape:transform-center-x="-0.57566482"
       inkscape:transform-center-y="-0.0095175773" />
    <path
       sodipodi:type="arc"
       style="fill:#a40000;fill-opacity:1;stroke:none"
       id="path5187-3"
       sodipodi:cx="430.1636"
       sodipodi:cy="10.420764"
       sodipodi:rx="2.9914019"
       sodipodi:ry="5.3064871"
       d="m 433.15501,10.420764 a 2.9914019,5.3064871 0 1 1 -5.98281,0 2.9914019,5.3064871 0 1 1 5.98281,0 z"
       transform="matrix(0.76841822,-0.53534512,0.51777544,0.79449294,96.199826,234.17711)" />
    <path
       sodipodi:type="arc"
       style="opacity:0.97000001999999996;fill:#ffff00;fill-opacity:1;stroke:none"
       id="path5216-8"
       sodipodi:cx="430.42374"
       sodipodi:cy="25.351761"
       sodipodi:rx="0.54625601"
       sodipodi:ry="0.98846328"
       d="m 430.96999,25.351761 a 0.54625601,0.98846328 0 1 1 -1.09251,0 0.54625601,0.98846328 0 1 1 1.09251,0 z"
       transform="matrix(1.0529327,-0.27459598,0.29156501,0.99165232,-27.011166,118.04509)" />
    <path
       sodipodi:type="arc"
       style="fill:#a40000;fill-opacity:1;stroke:none"
       id="path5163-6"
       sodipodi:cx="428.88901"
       sodipodi:cy="22.464409"
       sodipodi:rx="0.98846328"
       sodipodi:ry="2.1069875"
       d="m 429.87747,22.464409 a 0.98846328,2.1069875 0 1 1 -1.97693,0 0.98846328,2.1069875 0 1 1 1.97693,0 z"
       transform="matrix(1.2159186,-0.42390195,0.43006675,1.198489,-98.468528,177.32194)" />
    <path
       sodipodi:type="arc"
       style="fill:#630000;fill-opacity:1;stroke:none"
       id="path5084"
       sodipodi:cx="422.55341"
       sodipodi:cy="24.405756"
       sodipodi:rx="11.917363"
       sodipodi:ry="8.7604456"
       d="m 434.47077,24.405756 a 11.917363,8.7604456 0 1 1 -23.83473,0 11.917363,8.7604456 0 1 1 23.83473,0 z"
       transform="matrix(0.58097685,0.09880909,-0.07108215,0.56702386,188.34415,-38.2486)" />
    <rect
       style="opacity:0.97000002;fill:#000000;fill-opacity:1;stroke:none"
       id="rect2888"
       width="3.5060356"
       height="4.8458114"
       x="-418.21289"
       y="262.7695"
       transform="matrix(-0.79153148,-0.61112839,0.41500742,-0.90981803,0,0)" />
    <path
       sodipodi:type="arc"
       style="fill:#740000;fill-opacity:1;fill-rule:evenodd;stroke:none"
       id="path3600"
       sodipodi:cx="443.6709"
       sodipodi:cy="18.544304"
       sodipodi:rx="3.4810126"
       sodipodi:ry="2.8481014"
       d="m 447.15191,18.544304 a 3.4810126,2.8481014 0 1 1 -6.96202,0 3.4810126,2.8481014 0 1 1 6.96202,0 z"
       transform="matrix(1.5454546,0,0,1.6388889,-245.95801,-14.300281)" />
    <path
       sodipodi:type="arc"
       style="fill:#ffffff;fill-opacity:1;stroke:none"
       id="path3602"
       sodipodi:cx="440.50632"
       sodipodi:cy="31.044304"
       sodipodi:rx="1.8987342"
       sodipodi:ry="1.7405063"
       d="m 442.40505,31.044304 a 1.8987342,1.7405063 0 1 1 -3.79747,0 1.8987342,1.7405063 0 1 1 3.79747,0 z"
       transform="matrix(0.74499271,0.45892358,-0.23840185,0.38700919,119.22373,-197.76361)"
       inkscape:transform-center-x="1.4745307"
       inkscape:transform-center-y="-1.1014242" />
    <path
       sodipodi:type="arc"
       style="fill:#63ff00;fill-opacity:1;stroke:none"
       id="path5052"
       sodipodi:cx="426.03183"
       sodipodi:cy="19.515596"
       sodipodi:rx="0.35259575"
       sodipodi:ry="0.51286656"
       d="m 426.38443,19.515596 a 0.35259575,0.51286656 0 1 1 -0.7052,0 0.35259575,0.51286656 0 1 1 0.7052,0 z"
       transform="matrix(1.1246959,-0.90082818,1.2395314,0.73897043,-62.954344,386.16706)" />
    <path
       sodipodi:type="arc"
       style="fill:#000000;fill-opacity:1;stroke:none"
       id="path5044"
       sodipodi:cx="440.75488"
       sodipodi:cy="17.039326"
       sodipodi:rx="0.32637057"
       sodipodi:ry="0.29201579"
       d="m 441.08125,17.039326 a 0.32637057,0.29201579 0 1 1 -0.65274,0 0.32637057,0.29201579 0 1 1 0.65274,0 z" />
    <path
       sodipodi:type="arc"
       style="fill:#e0ff00;fill-opacity:1;stroke:none"
       id="path5046"
       sodipodi:cx="443.33148"
       sodipodi:cy="19.46134"
       sodipodi:rx="1.7349173"
       sodipodi:ry="1.5459659"
       d="m 445.0664,19.46134 a 1.7349173,1.5459659 0 1 1 -3.46984,0 1.7349173,1.5459659 0 1 1 3.46984,0 z"
       transform="translate(0.65274127,-0.44661236)" />
    <path
       sodipodi:type="arc"
       style="fill:#e0ff00;fill-opacity:1;stroke:none"
       id="path5048"
       sodipodi:cx="422.70142"
       sodipodi:cy="18.842953"
       sodipodi:rx="1.3741919"
       sodipodi:ry="1.5459659"
       d="m 424.07561,18.842953 a 1.3741919,1.5459659 0 1 1 -2.74839,0 1.3741919,1.5459659 0 1 1 2.74839,0 z"
       transform="translate(20.564875,1.2709727)" />
    <path
       sodipodi:type="arc"
       style="fill:#ffffff;fill-opacity:1;stroke:none"
       id="path5050"
       sodipodi:cx="427.0473"
       sodipodi:cy="18.361986"
       sodipodi:rx="0.77298295"
       sodipodi:ry="0.75580555"
       d="m 427.82029,18.361986 a 0.77298295,0.75580555 0 1 1 -1.54597,0 0.77298295,0.75580555 0 1 1 1.54597,0 z"
       transform="matrix(1.2222222,0,0,1.25,-77.756354,-2.9586436)" />
    <path
       sodipodi:type="arc"
       style="fill:#ffffff;fill-opacity:1;stroke:none"
       id="path3602-3"
       sodipodi:cx="440.50632"
       sodipodi:cy="31.044304"
       sodipodi:rx="1.8987342"
       sodipodi:ry="1.7405063"
       d="m 442.40505,31.044304 a 1.8987342,1.7405063 0 1 1 -3.79747,0 1.8987342,1.7405063 0 1 1 3.79747,0 z"
       transform="matrix(0.18597699,0.6687559,0.39398078,0.00501884,349.60629,-279.5918)"
       inkscape:transform-center-x="0.53213335"
       inkscape:transform-center-y="-1.402848" />
    <path
       sodipodi:type="arc"
       style="fill:#63ff00;fill-opacity:1;stroke:none"
       id="path5052-8"
       sodipodi:cx="426.03183"
       sodipodi:cy="19.515596"
       sodipodi:rx="0.35259575"
       sodipodi:ry="0.51286656"
       d="m 426.38443,19.515596 a 0.35259575,0.51286656 0 1 1 -0.7052,0 0.35259575,0.51286656 0 1 1 0.7052,0 z"
       transform="matrix(-1.0729666,0.35579087,0.28853998,1.1025971,895.47752,-157.52278)" />
    <path
       transform="matrix(-0.27363542,0.64494301,0.84945166,0.4102601,550.22075,-275.34979)"
       sodipodi:type="arc"
       style="fill:#000000;fill-opacity:1;stroke:none"
       id="path5044-2"
       sodipodi:cx="440.75488"
       sodipodi:cy="17.039326"
       sodipodi:rx="0.32637057"
       sodipodi:ry="0.29201579"
       d="m 441.08125,17.039326 a 0.32637057,0.29201579 0 1 1 -0.65274,0 0.32637057,0.29201579 0 1 1 0.65274,0 z" />
    <rect
       style="opacity:0.97000002;fill:#000000;fill-opacity:1;stroke:none"
       id="rect2862"
       width="3.7496448"
       height="3.3850961"
       x="417.87708"
       y="8.1819925" />
    <rect
       style="fill:#630000;fill-opacity:1;stroke:none"
       id="rect5086"
       width="5.6780353"
       height="10.861786"
       x="296.07535"
       y="343.77963"
       transform="matrix(0.60494004,-0.79627103,0.6937952,0.72017235,0,0)" />
    <rect
       style="fill:#ffffff;fill-opacity:1;stroke:none"
       id="rect5088"
       width="9.6322889"
       height="4.9841509"
       x="304.15683"
       y="-230.15962"
       transform="matrix(0.82603109,0.56362456,-0.72265436,0.69120957,0,0)"
       inkscape:transform-center-x="-0.54702407"
       inkscape:transform-center-y="-0.077312405" />
    <path
       sodipodi:type="arc"
       style="fill:#ffffff;fill-opacity:1;stroke:none"
       id="path5114"
       sodipodi:cx="421.88254"
       sodipodi:cy="21.209377"
       sodipodi:rx="3.8277624"
       sodipodi:ry="2.95961"
       d="m 425.7103,21.209377 a 3.8277624,2.95961 0 1 1 -7.65552,0 3.8277624,2.95961 0 1 1 7.65552,0 z"
       transform="translate(0.63138348,-1.5784587)" />
    <path
       sodipodi:type="arc"
       style="fill:#ff0001;fill-opacity:1;stroke:none"
       id="path5137"
       sodipodi:cx="444.0816"
       sodipodi:cy="19.961018"
       sodipodi:rx="0.6286177"
       sodipodi:ry="0.41907847"
       d="m 444.71022,19.961018 a 0.6286177,0.41907847 0 1 1 -1.25723,0 0.6286177,0.41907847 0 1 1 1.25723,0 z"
       transform="matrix(0.78516576,0.61928566,-0.61928566,0.78516576,107.6749,-270.92893)" />
    <path
       sodipodi:type="arc"
       style="fill:#ffffff;fill-opacity:1;stroke:none"
       id="path5139"
       sodipodi:cx="444.26849"
       sodipodi:cy="19.541939"
       sodipodi:rx="0.35111979"
       sodipodi:ry="0.36244625"
       d="m 444.61961,19.541939 a 0.35111979,0.36244625 0 1 1 -0.70224,0 0.35111979,0.36244625 0 1 1 0.70224,0 z"
       transform="matrix(0.86396687,0,0,1.2665938,59.818283,-4.7234718)" />
    <path
       sodipodi:type="arc"
       style="fill:#ffffff;fill-opacity:1;stroke:none"
       id="path5139-5"
       sodipodi:cx="444.26849"
       sodipodi:cy="19.541939"
       sodipodi:rx="0.35111979"
       sodipodi:ry="0.36244625"
       d="m 444.61961,19.541939 a 0.35111979,0.36244625 0 1 1 -0.70224,0 0.35111979,0.36244625 0 1 1 0.70224,0 z"
       transform="matrix(1.0106283,0,0,1.1718749,-4.3932558,-3.1875434)" />
    <path
       sodipodi:type="arc"
       style="opacity:0.97000001999999996;fill:#ffff00;fill-opacity:1;stroke:none"
       id="path5216"
       sodipodi:cx="430.42374"
       sodipodi:cy="25.351761"
       sodipodi:rx="0.54625601"
       sodipodi:ry="0.98846328"
       d="m 430.96999,25.351761 a 0.54625601,0.98846328 0 1 1 -1.09251,0 0.54625601,0.98846328 0 1 1 1.09251,0 z"
       transform="matrix(1.0529327,-0.28102019,0.29156501,1.0148521,-30.341532,120.71931)" />
    <path
       sodipodi:type="arc"
       style="fill:#a40000;fill-opacity:1;stroke:none"
       id="path5163"
       sodipodi:cx="428.88901"
       sodipodi:cy="22.464409"
       sodipodi:rx="0.98846328"
       sodipodi:ry="2.1069875"
       d="m 429.87747,22.464409 a 0.98846328,2.1069875 0 1 1 -1.97693,0 0.98846328,2.1069875 0 1 1 1.97693,0 z"
       transform="matrix(1.3209771,-0.50142904,0.46722562,1.4176797,-147.58722,205.70049)" />
    <path
       sodipodi:type="arc"
       style="fill:#a40000;fill-opacity:1;"
       id="path5187"
       sodipodi:cx="430.1636"
       sodipodi:cy="10.420764"
       sodipodi:rx="2.9914019"
       sodipodi:ry="5.3064871"
       d="m 433.15501,10.420764 a 2.9914019,5.3064871 0 1 1 -5.98281,0 2.9914019,5.3064871 0 1 1 5.98281,0 z"
       transform="matrix(0.83488182,-0.5649742,0.56255994,0.83846476,63.78688,247.94017)" />
    <rect
       style="fill:#a40000;fill-opacity:1;"
       id="rect5189"
       width="2.2446158"
       height="3.0062594"
       x="436.66562"
       y="-180.58167"
       transform="matrix(0.90454549,0.42637712,-0.16986255,0.98546776,0,0)" />
    <rect
       style="fill:#a40000;fill-opacity:1;stroke:none"
       id="rect5189-9"
       width="1.9319222"
       height="2.5015409"
       x="432.15146"
       y="-134.80434"
       transform="matrix(0.94562901,0.32524725,-0.15268083,0.98827555,0,0)" />
    <path
       sodipodi:type="arc"
       style="opacity:0.97000001999999996;fill:#ffff00;fill-opacity:1;stroke:none"
       id="path5218"
       sodipodi:cx="430.44974"
       sodipodi:cy="26.496298"
       sodipodi:rx="0.26012191"
       sodipodi:ry="0.57226819"
       d="m 430.70986,26.496298 a 0.26012191,0.57226819 0 1 1 -0.52024,0 0.26012191,0.57226819 0 1 1 0.52024,0 z"
       transform="matrix(1.0229917,0.3697477,-0.38362187,0.98599388,-0.12229575,-158.80703)" />
    <path
       sodipodi:type="arc"
       style="opacity:0.97000001999999996;fill:#ffff00;fill-opacity:1;stroke:none"
       id="path5218-2"
       sodipodi:cx="430.44974"
       sodipodi:cy="26.496298"
       sodipodi:rx="0.26012191"
       sodipodi:ry="0.57226819"
       d="m 430.70986,26.496298 a 0.26012191,0.57226819 0 1 1 -0.52024,0 0.26012191,0.57226819 0 1 1 0.52024,0 z"
       transform="matrix(0.86559774,-0.64253682,0.66664696,0.83429226,40.794086,280.51583)"
       inkscape:transform-center-x="-0.44306096" />
    <path
       sodipodi:type="arc"
       style="opacity:0.97000001999999996;fill:#ffff00;fill-opacity:1;stroke:none"
       id="path5218-26"
       sodipodi:cx="430.44974"
       sodipodi:cy="26.496298"
       sodipodi:rx="0.26012191"
       sodipodi:ry="0.57226819"
       d="m 430.70986,26.496298 a 0.26012191,0.57226819 0 1 1 -0.52024,0 0.26012191,0.57226819 0 1 1 0.52024,0 z"
       transform="matrix(1.0517786,-0.28500689,0.2957013,1.0137397,-29.856328,122.36856)" />
    <path
       sodipodi:type="arc"
       style="opacity:0.97000002;fill:#ffffff;fill-opacity:1;stroke:none"
       id="path5287"
       sodipodi:cx="429.70245"
       sodipodi:cy="26.407906"
       sodipodi:rx="0.14590332"
       sodipodi:ry="0.24031135"
       d="m 429.84836,26.407906 a 0.14590332,0.24031135 0 1 1 -0.29181,0 0.14590332,0.24031135 0 1 1 0.29181,0 z"
       transform="matrix(1.0925555,0,0,1.5043454,-39.648098,-13.305365)" />
    <path
       sodipodi:type="arc"
       style="opacity:0.97000002;fill:#ffffff;fill-opacity:1;stroke:none"
       id="path5287-1"
       sodipodi:cx="429.70245"
       sodipodi:cy="26.407906"
       sodipodi:rx="0.14590332"
       sodipodi:ry="0.24031135"
       d="m 429.84836,26.407906 a 0.14590332,0.24031135 0 1 1 -0.29181,0 0.14590332,0.24031135 0 1 1 0.29181,0 z"
       transform="matrix(1.4781634,0,0,1.3539109,-204.69772,-8.97119)" />
    <path
       sodipodi:type="arc"
       style="opacity:0.97000002;fill:#ffffff;fill-opacity:1;stroke:none"
       id="path5287-1-1"
       sodipodi:cx="429.70245"
       sodipodi:cy="26.407906"
       sodipodi:rx="0.14590332"
       sodipodi:ry="0.24031135"
       d="m 429.84836,26.407906 a 0.14590332,0.24031135 0 1 1 -0.29181,0 0.14590332,0.24031135 0 1 1 0.29181,0 z"
       transform="matrix(0.92244714,-0.5642906,0.75274024,1.14311,14.779232,238.58463)" />
    <path
       sodipodi:type="arc"
       style="opacity:0.97000001999999996;fill:#ffff00;fill-opacity:1;stroke:none"
       id="path5218-6"
       sodipodi:cx="430.44974"
       sodipodi:cy="26.496298"
       sodipodi:rx="0.26012191"
       sodipodi:ry="0.57226819"
       d="m 430.70986,26.496298 a 0.26012191,0.57226819 0 1 1 -0.52024,0 0.26012191,0.57226819 0 1 1 0.52024,0 z"
       transform="matrix(1.0229917,0.3697477,-0.38362187,0.98599388,3.2080675,-159.29217)" />
    <path
       sodipodi:type="arc"
       style="opacity:0.97000001999999996;fill:#ffff00;fill-opacity:1;stroke:none"
       id="path5218-2-2"
       sodipodi:cx="430.44974"
       sodipodi:cy="26.496298"
       sodipodi:rx="0.26012191"
       sodipodi:ry="0.57226819"
       d="m 430.70986,26.496298 a 0.26012191,0.57226819 0 1 1 -0.52024,0 0.26012191,0.57226819 0 1 1 0.52024,0 z"
       transform="matrix(0.86559774,-0.64253682,0.66664696,0.83429226,44.124447,280.03068)"
       inkscape:transform-center-x="-0.44306031" />
    <path
       sodipodi:type="arc"
       style="opacity:0.97000001999999996;fill:#ffff00;fill-opacity:1;stroke:none"
       id="path5218-26-9"
       sodipodi:cx="430.44974"
       sodipodi:cy="26.496298"
       sodipodi:rx="0.26012191"
       sodipodi:ry="0.57226819"
       d="m 430.70986,26.496298 a 0.26012191,0.57226819 0 1 1 -0.52024,0 0.26012191,0.57226819 0 1 1 0.52024,0 z"
       transform="matrix(1.0517786,-0.28500689,0.2957013,1.0137397,-26.525962,121.88343)" />
    <path
       sodipodi:type="arc"
       style="opacity:0.97000002;fill:#ffffff;fill-opacity:1;stroke:none"
       id="path5287-0"
       sodipodi:cx="429.70245"
       sodipodi:cy="26.407906"
       sodipodi:rx="0.14590332"
       sodipodi:ry="0.24031135"
       d="m 429.84836,26.407906 a 0.14590332,0.24031135 0 1 1 -0.29181,0 0.14590332,0.24031135 0 1 1 0.29181,0 z"
       transform="matrix(1.0925555,0,0,1.5043454,-36.31774,-13.790508)" />
    <path
       sodipodi:type="arc"
       style="opacity:0.97000002;fill:#ffffff;fill-opacity:1;stroke:none"
       id="path5287-1-3"
       sodipodi:cx="429.70245"
       sodipodi:cy="26.407906"
       sodipodi:rx="0.14590332"
       sodipodi:ry="0.24031135"
       d="m 429.84836,26.407906 a 0.14590332,0.24031135 0 1 1 -0.29181,0 0.14590332,0.24031135 0 1 1 0.29181,0 z"
       transform="matrix(1.4781634,0,0,1.3539109,-201.36737,-9.4563322)" />
    <path
       sodipodi:type="arc"
       style="opacity:0.97000002;fill:#ffffff;fill-opacity:1;stroke:none"
       id="path5287-1-1-1"
       sodipodi:cx="429.70245"
       sodipodi:cy="26.407906"
       sodipodi:rx="0.14590332"
       sodipodi:ry="0.24031135"
       d="m 429.84836,26.407906 a 0.14590332,0.24031135 0 1 1 -0.29181,0 0.14590332,0.24031135 0 1 1 0.29181,0 z"
       transform="matrix(0.92244714,-0.5642906,0.75274024,1.14311,18.109596,238.09949)" />
    <text
       xml:space="preserve"
       style="font-size:20px;font-style:normal;font-weight:normal;fill:#000000;fill-opacity:1;stroke:none;font-family:Bitstream Vera Sans"
       x="424.23065"
       y="20.472494"
       id="text5412"><tspan
         sodipodi:role="line"
         id="tspan5414" /></text>
    <rect
       style="opacity:0.97000001999999996;fill:#000000;fill-opacity:1;stroke:none"
       id="rect2864"
       width="1.0936464"
       height="1.0936464"
       x="418.13745"
       y="9.7964239" />
    <rect
       style="opacity:0.97000002;fill:#000000;fill-opacity:1;stroke:none"
       id="rect2864-9"
       width="1.0936464"
       height="1.0936464"
       x="418.9447"
       y="8.4684238" />
  </g>
</svg>
